<?xml version="1.0" encoding="ISO-8859-1"?>
<!DOCTYPE svg PUBLIC "-//W3C//DTD SVG 1.0//EN" "http://www.w3.org/TR/2001/REC-SVG-20010904/DTD/svg10.dtd">
<!-- generated by Grace-5.1.25 -->
<svg xml:space="preserve" width="11.0000in" height="8.5000in" viewBox="0.0000 0.0000 792.0000 612.0000">
 <g transform="translate(0,612.0000) scale(1,-1)">
  <g style="fill:#FFFFFF; fill-rule:nonzero">
   <path  d="M0.0000,0.0000L0.0000,612.0000L792.0000,612.0000L792.0000,0.0000z"/>
  </g>
  <g style="fill:none; stroke:#FFFFFF; stroke-width:  3.6720; stroke-linecap:butt; stroke-linejoin:miter; stroke-dasharray:none">
   <path d="M215.4589,536.1606L361.2835,421.4719L507.1082,321.2054L652.9328,269.0829"/>
  </g>
  <g style="fill:#FFFFFF; fill-rule:nonzero">
   <path  d="M215.4589,543.8106L207.8089,536.1606L215.4589,528.5106L223.1089,536.1606z"/>
  </g>
  <g style="fill:none; stroke:#FFFFFF; stroke-width:  0.9180; stroke-linecap:butt; stroke-linejoin:miter; stroke-dasharray:none">
   <path d="M215.4589,543.8106L207.8089,536.1606L215.4589,528.5106L223.1089,536.1606z"/>
  </g>
  <g style="fill:#FFFFFF; fill-rule:nonzero">
   <path  d="M361.2835,429.1219L353.6335,421.4719L361.2835,413.8219L368.9335,421.4719z"/>
  </g>
  <g style="fill:none; stroke:#FFFFFF; stroke-width:  0.9180; stroke-linecap:butt; stroke-linejoin:miter; stroke-dasharray:none">
   <path d="M361.2835,429.1219L353.6335,421.4719L361.2835,413.8219L368.9335,421.4719z"/>
  </g>
  <g style="fill:#FFFFFF; fill-rule:nonzero">
   <path  d="M507.1082,328.8554L499.4582,321.2054L507.1082,313.5554L514.7582,321.2054z"/>
  </g>
  <g style="fill:none; stroke:#FFFFFF; stroke-width:  0.9180; stroke-linecap:butt; stroke-linejoin:miter; stroke-dasharray:none">
   <path d="M507.1082,328.8554L499.4582,321.2054L507.1082,313.5554L514.7582,321.2054z"/>
  </g>
  <g style="fill:#FFFFFF; fill-rule:nonzero">
   <path  d="M652.9328,276.7329L645.2828,269.0829L652.9328,261.4329L660.5828,269.0829z"/>
  </g>
  <g style="fill:none; stroke:#FFFFFF; stroke-width:  0.9180; stroke-linecap:butt; stroke-linejoin:miter; stroke-dasharray:none">
   <path d="M652.9328,276.7329L645.2828,269.0829L652.9328,261.4329L660.5828,269.0829z"/>
  </g>
  <g style="fill:none; stroke:#FF0000; stroke-width:  3.6720; stroke-linecap:butt; stroke-linejoin:miter; stroke-dasharray:none">
   <path d="M215.4589,536.1606L361.2835,421.4719L507.1082,302.3095L652.9328,222.2264"/>
  </g>
  <g style="fill:#FF0000; fill-rule:nonzero">
   <path  d="M208.9564,529.6581L208.9564,542.6631L221.9614,542.6631L221.9614,529.6581z"/>
  </g>
  <g style="fill:none; stroke:#FF0000; stroke-width:  0.9180; stroke-linecap:butt; stroke-linejoin:miter; stroke-dasharray:none">
   <path d="M208.9564,529.6581L208.9564,542.6631L221.9614,542.6631L221.9614,529.6581z"/>
  </g>
  <g style="fill:#FF0000; fill-rule:nonzero">
   <path  d="M354.7810,414.9694L354.7810,427.9744L367.7860,427.9744L367.7860,414.9694z"/>
  </g>
  <g style="fill:none; stroke:#FF0000; stroke-width:  0.9180; stroke-linecap:butt; stroke-linejoin:miter; stroke-dasharray:none">
   <path d="M354.7810,414.9694L354.7810,427.9744L367.7860,427.9744L367.7860,414.9694z"/>
  </g>
  <g style="fill:#FF0000; fill-rule:nonzero">
   <path  d="M500.6057,295.8070L500.6057,308.8120L513.6107,308.8120L513.6107,295.8070z"/>
  </g>
  <g style="fill:none; stroke:#FF0000; stroke-width:  0.9180; stroke-linecap:butt; stroke-linejoin:miter; stroke-dasharray:none">
   <path d="M500.6057,295.8070L500.6057,308.8120L513.6107,308.8120L513.6107,295.8070z"/>
  </g>
  <g style="fill:#FF0000; fill-rule:nonzero">
   <path  d="M646.4303,215.7239L646.4303,228.7289L659.4353,228.7289L659.4353,215.7239z"/>
  </g>
  <g style="fill:none; stroke:#FF0000; stroke-width:  0.9180; stroke-linecap:butt; stroke-linejoin:miter; stroke-dasharray:none">
   <path d="M646.4303,215.7239L646.4303,228.7289L659.4353,228.7289L659.4353,215.7239z"/>
  </g>
  <g style="fill:none; stroke:#000000; stroke-width:  0.9180; stroke-linecap:butt; stroke-linejoin:miter; stroke-dasharray:none">
   <path d="M91.8000,61.2000L777.2400,61.2000"/>
   <path d="M91.8000,599.7600L777.2400,599.7600"/>
  </g>
  <g style="fill:none; stroke:#000000; stroke-width:  2.7540; stroke-linecap:butt; stroke-linejoin:miter; stroke-dasharray:none">
   <path d="M215.4589,61.2000L215.4589,73.4400"/>
   <path d="M215.4589,599.7600L215.4589,587.5200"/>
   <path d="M361.2835,61.2000L361.2835,73.4400"/>
   <path d="M361.2835,599.7600L361.2835,587.5200"/>
   <path d="M507.1082,61.2000L507.1082,73.4400"/>
   <path d="M507.1082,599.7600L507.1082,587.5200"/>
   <path d="M652.9328,61.2000L652.9328,73.4400"/>
   <path d="M652.9328,599.7600L652.9328,587.5200"/>
  </g>
  <g style="fill:#000000; fill-rule:nonzero">
   <text   style="font-family:'Times','Nimbus Roman No9 L'; font-style:normal; font-weight:bold; font-size:612.0000" transform="matrix(0.0490,0.0000,-0.0000,-0.0490,200.9589,34.0800)">18</text>
   <text   style="font-family:'Times','Nimbus Roman No9 L'; font-style:normal; font-weight:bold; font-size:612.0000" transform="matrix(0.0490,0.0000,-0.0000,-0.0490,346.7835,34.0800)">36</text>
   <text   style="font-family:'Times','Nimbus Roman No9 L'; font-style:normal; font-weight:bold; font-size:612.0000" transform="matrix(0.0490,0.0000,-0.0000,-0.0490,492.1082,34.0800)">72</text>
   <text   style="font-family:'Times','Nimbus Roman No9 L'; font-style:normal; font-weight:bold; font-size:612.0000" transform="matrix(0.0490,0.0000,-0.0000,-0.0490,630.9328,34.0800)">144</text>
   <text   style="font-family:'Times','Nimbus Roman No9 L'; font-style:normal; font-weight:bold; font-size:612.0000" transform="matrix(0.0490,0.0000,-0.0000,-0.0490,395.5200,5.9600)">Nodes</text>
  </g>
  <g style="fill:none; stroke:#000000; stroke-width:  0.9180; stroke-linecap:butt; stroke-linejoin:miter; stroke-dasharray:none">
   <path d="M91.8000,61.2000L91.8000,599.7600"/>
   <path d="M777.2400,61.2000L777.2400,599.7600"/>
  </g>
  <g style="fill:none; stroke:#000000; stroke-width:  2.7540; stroke-linecap:butt; stroke-linejoin:miter; stroke-dasharray:none">
   <path d="M91.8000,61.2000L104.0400,61.2000"/>
   <path d="M777.2400,61.2000L765.0000,61.2000"/>
   <path d="M91.8000,195.8400L104.0400,195.8400"/>
   <path d="M777.2400,195.8400L765.0000,195.8400"/>
   <path d="M91.8000,330.4800L104.0400,330.4800"/>
   <path d="M777.2400,330.4800L765.0000,330.4800"/>
   <path d="M91.8000,465.1200L104.0400,465.1200"/>
   <path d="M777.2400,465.1200L765.0000,465.1200"/>
   <path d="M91.8000,599.7600L104.0400,599.7600"/>
   <path d="M777.2400,599.7600L765.0000,599.7600"/>
  </g>
  <g style="fill:#000000; fill-rule:nonzero">
   <text   style="font-family:'Times','Nimbus Roman No9 L'; font-style:normal; font-weight:bold; font-size:612.0000" transform="matrix(0.0490,0.0000,-0.0000,-0.0490,55.6800,51.2000)">20</text>
   <text   style="font-family:'Times','Nimbus Roman No9 L'; font-style:normal; font-weight:bold; font-size:612.0000" transform="matrix(0.0490,0.0000,-0.0000,-0.0490,55.6800,185.8400)">40</text>
   <text   style="font-family:'Times','Nimbus Roman No9 L'; font-style:normal; font-weight:bold; font-size:612.0000" transform="matrix(0.0490,0.0000,-0.0000,-0.0490,55.6800,320.4800)">80</text>
   <text   style="font-family:'Times','Nimbus Roman No9 L'; font-style:normal; font-weight:bold; font-size:612.0000" transform="matrix(0.0490,0.0000,-0.0000,-0.0490,40.6800,455.1200)">160</text>
   <text   style="font-family:'Times','Nimbus Roman No9 L'; font-style:normal; font-weight:bold; font-size:612.0000" transform="matrix(0.0490,0.0000,-0.0000,-0.0490,40.6800,589.7600)">320</text>
   <text   style="font-family:'Times','Nimbus Roman No9 L'; font-style:normal; font-weight:bold; font-size:612.0000" transform="matrix(0.0000,0.0490,0.0490,-0.0000,28.5600,213.4800)">Time/scf step (sec)</text>
  </g>
  <g style="fill:none; stroke:#000000; stroke-width:  3.6720; stroke-linecap:butt; stroke-linejoin:miter; stroke-dasharray:none">
   <path d="M91.8000,61.2000L91.8000,599.7600L777.2400,599.7600L777.2400,61.2000z"/>
  </g>
  <g style="fill:#FFFFFF; fill-rule:nonzero">
   <path  d="M397.8000,550.8000L397.8000,516.5600L699.3990,516.5600L699.3990,550.8000z"/>
  </g>
  <g style="fill:none; stroke:#000000; stroke-width:  3.6720; stroke-linecap:butt; stroke-linejoin:miter; stroke-dasharray:none">
   <path d="M397.8000,550.8000L397.8000,516.5600L699.3990,516.5600L699.3990,550.8000z"/>
  </g>
  <g style="fill:#000000; fill-rule:nonzero">
   <text   style="font-family:'Times','Nimbus Roman No9 L'; font-style:normal; font-weight:bold; font-size:612.0000" transform="matrix(0.0490,0.0000,-0.0000,-0.0490,450.2790,523.6800)">2016 atom NiO cell</text>
  </g>
  <g style="fill:none; stroke:#FFFFFF; stroke-width:  3.6720; stroke-linecap:butt; stroke-linejoin:miter; stroke-dasharray:none">
   <path d="M412.0290,533.6800L436.5090,533.6800"/>
  </g>
  <g style="fill:#FFFFFF; fill-rule:nonzero">
   <path  d="M412.0290,541.3300L404.3790,533.6800L412.0290,526.0300L419.6790,533.6800z"/>
  </g>
  <g style="fill:none; stroke:#FFFFFF; stroke-width:  0.9180; stroke-linecap:butt; stroke-linejoin:miter; stroke-dasharray:none">
   <path d="M412.0290,541.3300L404.3790,533.6800L412.0290,526.0300L419.6790,533.6800z"/>
  </g>
  <g style="fill:#FFFFFF; fill-rule:nonzero">
   <path  d="M436.5090,541.3300L428.8590,533.6800L436.5090,526.0300L444.1590,533.6800z"/>
  </g>
  <g style="fill:none; stroke:#FFFFFF; stroke-width:  0.9180; stroke-linecap:butt; stroke-linejoin:miter; stroke-dasharray:none">
   <path d="M436.5090,541.3300L428.8590,533.6800L436.5090,526.0300L444.1590,533.6800z"/>
  </g>
 </g>
</svg>
