<?xml version="1.0" encoding="ISO-8859-1"?>
<!DOCTYPE svg PUBLIC "-//W3C//DTD SVG 1.0//EN" "http://www.w3.org/TR/2001/REC-SVG-20010904/DTD/svg10.dtd">
<!-- generated by Grace-5.1.25 -->
<svg xml:space="preserve" width="11.0000in" height="8.5000in" viewBox="0.0000 0.0000 792.0000 612.0000">
 <g transform="translate(0,612.0000) scale(1,-1)">
  <g style="fill:#FFFFFF; fill-rule:nonzero">
   <path  d="M0.0000,0.0000L0.0000,612.0000L792.0000,612.0000L792.0000,0.0000z"/>
  </g>
  <g style="fill:none; stroke:#FFFFFF; stroke-width:  3.6720; stroke-linecap:butt; stroke-linejoin:miter; stroke-dasharray:none">
   <path d="M215.4589,558.0755L361.2835,336.5119L507.1082,225.5039L652.9328,186.8353"/>
  </g>
  <g style="fill:#FFFFFF; fill-rule:nonzero">
   <path  d="M215.4589,565.7255L207.8089,558.0755L215.4589,550.4255L223.1089,558.0755z"/>
  </g>
  <g style="fill:none; stroke:#FFFFFF; stroke-width:  0.9180; stroke-linecap:butt; stroke-linejoin:miter; stroke-dasharray:none">
   <path d="M215.4589,565.7255L207.8089,558.0755L215.4589,550.4255L223.1089,558.0755z"/>
  </g>
  <g style="fill:#FFFFFF; fill-rule:nonzero">
   <path  d="M361.2835,344.1619L353.6335,336.5119L361.2835,328.8619L368.9335,336.5119z"/>
  </g>
  <g style="fill:none; stroke:#FFFFFF; stroke-width:  0.9180; stroke-linecap:butt; stroke-linejoin:miter; stroke-dasharray:none">
   <path d="M361.2835,344.1619L353.6335,336.5119L361.2835,328.8619L368.9335,336.5119z"/>
  </g>
  <g style="fill:#FFFFFF; fill-rule:nonzero">
   <path  d="M507.1082,233.1539L499.4582,225.5039L507.1082,217.8539L514.7582,225.5039z"/>
  </g>
  <g style="fill:none; stroke:#FFFFFF; stroke-width:  0.9180; stroke-linecap:butt; stroke-linejoin:miter; stroke-dasharray:none">
   <path d="M507.1082,233.1539L499.4582,225.5039L507.1082,217.8539L514.7582,225.5039z"/>
  </g>
  <g style="fill:#FFFFFF; fill-rule:nonzero">
   <path  d="M652.9328,194.4853L645.2828,186.8353L652.9328,179.1853L660.5828,186.8353z"/>
  </g>
  <g style="fill:none; stroke:#FFFFFF; stroke-width:  0.9180; stroke-linecap:butt; stroke-linejoin:miter; stroke-dasharray:none">
   <path d="M652.9328,194.4853L645.2828,186.8353L652.9328,179.1853L660.5828,186.8353z"/>
  </g>
  <g style="fill:none; stroke:#FF0000; stroke-width:  3.6720; stroke-linecap:butt; stroke-linejoin:miter; stroke-dasharray:none">
   <path d="M215.4589,558.0755L361.2835,336.5119L507.1082,210.2734L652.9328,159.9073"/>
  </g>
  <g style="fill:#FF0000; fill-rule:nonzero">
   <path  d="M208.9564,551.5730L208.9564,564.5780L221.9614,564.5780L221.9614,551.5730z"/>
  </g>
  <g style="fill:none; stroke:#FF0000; stroke-width:  0.9180; stroke-linecap:butt; stroke-linejoin:miter; stroke-dasharray:none">
   <path d="M208.9564,551.5730L208.9564,564.5780L221.9614,564.5780L221.9614,551.5730z"/>
  </g>
  <g style="fill:#FF0000; fill-rule:nonzero">
   <path  d="M354.7810,330.0094L354.7810,343.0144L367.7860,343.0144L367.7860,330.0094z"/>
  </g>
  <g style="fill:none; stroke:#FF0000; stroke-width:  0.9180; stroke-linecap:butt; stroke-linejoin:miter; stroke-dasharray:none">
   <path d="M354.7810,330.0094L354.7810,343.0144L367.7860,343.0144L367.7860,330.0094z"/>
  </g>
  <g style="fill:#FF0000; fill-rule:nonzero">
   <path  d="M500.6057,203.7709L500.6057,216.7759L513.6107,216.7759L513.6107,203.7709z"/>
  </g>
  <g style="fill:none; stroke:#FF0000; stroke-width:  0.9180; stroke-linecap:butt; stroke-linejoin:miter; stroke-dasharray:none">
   <path d="M500.6057,203.7709L500.6057,216.7759L513.6107,216.7759L513.6107,203.7709z"/>
  </g>
  <g style="fill:#FF0000; fill-rule:nonzero">
   <path  d="M646.4303,153.4048L646.4303,166.4098L659.4353,166.4098L659.4353,153.4048z"/>
  </g>
  <g style="fill:none; stroke:#FF0000; stroke-width:  0.9180; stroke-linecap:butt; stroke-linejoin:miter; stroke-dasharray:none">
   <path d="M646.4303,153.4048L646.4303,166.4098L659.4353,166.4098L659.4353,153.4048z"/>
  </g>
  <g style="fill:none; stroke:#000000; stroke-width:  0.9180; stroke-linecap:butt; stroke-linejoin:miter; stroke-dasharray:none">
   <path d="M91.8000,61.2000L777.2400,61.2000"/>
   <path d="M91.8000,599.7600L777.2400,599.7600"/>
  </g>
  <g style="fill:none; stroke:#000000; stroke-width:  2.7540; stroke-linecap:butt; stroke-linejoin:miter; stroke-dasharray:none">
   <path d="M215.4589,61.2000L215.4589,73.4400"/>
   <path d="M215.4589,599.7600L215.4589,587.5200"/>
   <path d="M361.2835,61.2000L361.2835,73.4400"/>
   <path d="M361.2835,599.7600L361.2835,587.5200"/>
   <path d="M507.1082,61.2000L507.1082,73.4400"/>
   <path d="M507.1082,599.7600L507.1082,587.5200"/>
   <path d="M652.9328,61.2000L652.9328,73.4400"/>
   <path d="M652.9328,599.7600L652.9328,587.5200"/>
  </g>
  <g style="fill:#000000; fill-rule:nonzero">
   <text   style="font-family:'Times','Nimbus Roman No9 L'; font-style:normal; font-weight:bold; font-size:612.0000" transform="matrix(0.0490,0.0000,-0.0000,-0.0490,200.9589,34.0800)">18</text>
   <text   style="font-family:'Times','Nimbus Roman No9 L'; font-style:normal; font-weight:bold; font-size:612.0000" transform="matrix(0.0490,0.0000,-0.0000,-0.0490,346.7835,34.0800)">36</text>
   <text   style="font-family:'Times','Nimbus Roman No9 L'; font-style:normal; font-weight:bold; font-size:612.0000" transform="matrix(0.0490,0.0000,-0.0000,-0.0490,492.1082,34.0800)">72</text>
   <text   style="font-family:'Times','Nimbus Roman No9 L'; font-style:normal; font-weight:bold; font-size:612.0000" transform="matrix(0.0490,0.0000,-0.0000,-0.0490,630.9328,34.0800)">144</text>
   <text   style="font-family:'Times','Nimbus Roman No9 L'; font-style:normal; font-weight:bold; font-size:612.0000" transform="matrix(0.0490,0.0000,-0.0000,-0.0490,395.5200,5.9600)">Nodes</text>
  </g>
  <g style="fill:none; stroke:#000000; stroke-width:  0.9180; stroke-linecap:butt; stroke-linejoin:miter; stroke-dasharray:none">
   <path d="M91.8000,61.2000L91.8000,599.7600"/>
   <path d="M777.2400,61.2000L777.2400,599.7600"/>
  </g>
  <g style="fill:none; stroke:#000000; stroke-width:  2.7540; stroke-linecap:butt; stroke-linejoin:miter; stroke-dasharray:none">
   <path d="M91.8000,115.0560L97.9200,115.0560"/>
   <path d="M777.2400,115.0560L771.1200,115.0560"/>
   <path d="M91.8000,222.7680L97.9200,222.7680"/>
   <path d="M777.2400,222.7680L771.1200,222.7680"/>
   <path d="M91.8000,330.4800L97.9200,330.4800"/>
   <path d="M777.2400,330.4800L771.1200,330.4800"/>
   <path d="M91.8000,438.1920L97.9200,438.1920"/>
   <path d="M777.2400,438.1920L771.1200,438.1920"/>
   <path d="M91.8000,545.9040L97.9200,545.9040"/>
   <path d="M777.2400,545.9040L771.1200,545.9040"/>
   <path d="M91.8000,61.2000L104.0400,61.2000"/>
   <path d="M777.2400,61.2000L765.0000,61.2000"/>
   <path d="M91.8000,168.9120L104.0400,168.9120"/>
   <path d="M777.2400,168.9120L765.0000,168.9120"/>
   <path d="M91.8000,276.6240L104.0400,276.6240"/>
   <path d="M777.2400,276.6240L765.0000,276.6240"/>
   <path d="M91.8000,384.3360L104.0400,384.3360"/>
   <path d="M777.2400,384.3360L765.0000,384.3360"/>
   <path d="M91.8000,492.0480L104.0400,492.0480"/>
   <path d="M777.2400,492.0480L765.0000,492.0480"/>
   <path d="M91.8000,599.7600L104.0400,599.7600"/>
   <path d="M777.2400,599.7600L765.0000,599.7600"/>
  </g>
  <g style="fill:#000000; fill-rule:nonzero">
   <text   style="font-family:'Times','Nimbus Roman No9 L'; font-style:normal; font-weight:bold; font-size:612.0000" transform="matrix(0.0490,0.0000,-0.0000,-0.0490,70.6800,51.2000)">0</text>
   <text   style="font-family:'Times','Nimbus Roman No9 L'; font-style:normal; font-weight:bold; font-size:612.0000" transform="matrix(0.0490,0.0000,-0.0000,-0.0490,55.6800,158.9120)">50</text>
   <text   style="font-family:'Times','Nimbus Roman No9 L'; font-style:normal; font-weight:bold; font-size:612.0000" transform="matrix(0.0490,0.0000,-0.0000,-0.0490,40.6800,266.6240)">100</text>
   <text   style="font-family:'Times','Nimbus Roman No9 L'; font-style:normal; font-weight:bold; font-size:612.0000" transform="matrix(0.0490,0.0000,-0.0000,-0.0490,40.6800,374.3360)">150</text>
   <text   style="font-family:'Times','Nimbus Roman No9 L'; font-style:normal; font-weight:bold; font-size:612.0000" transform="matrix(0.0490,0.0000,-0.0000,-0.0490,40.6800,482.0480)">200</text>
   <text   style="font-family:'Times','Nimbus Roman No9 L'; font-style:normal; font-weight:bold; font-size:612.0000" transform="matrix(0.0490,0.0000,-0.0000,-0.0490,40.6800,589.7600)">250</text>
   <text   style="font-family:'Times','Nimbus Roman No9 L'; font-style:normal; font-weight:bold; font-size:612.0000" transform="matrix(0.0000,0.0490,0.0490,-0.0000,28.5600,213.4800)">Time/scf step (sec)</text>
  </g>
  <g style="fill:none; stroke:#000000; stroke-width:  3.6720; stroke-linecap:butt; stroke-linejoin:miter; stroke-dasharray:none">
   <path d="M91.8000,61.2000L91.8000,599.7600L777.2400,599.7600L777.2400,61.2000z"/>
  </g>
  <g style="fill:#FFFFFF; fill-rule:nonzero">
   <path  d="M397.8000,550.8000L397.8000,516.5600L699.3990,516.5600L699.3990,550.8000z"/>
  </g>
  <g style="fill:none; stroke:#000000; stroke-width:  3.6720; stroke-linecap:butt; stroke-linejoin:miter; stroke-dasharray:none">
   <path d="M397.8000,550.8000L397.8000,516.5600L699.3990,516.5600L699.3990,550.8000z"/>
  </g>
  <g style="fill:#000000; fill-rule:nonzero">
   <text   style="font-family:'Times','Nimbus Roman No9 L'; font-style:normal; font-weight:bold; font-size:612.0000" transform="matrix(0.0490,0.0000,-0.0000,-0.0490,450.2790,523.6800)">2016 atom NiO cell</text>
  </g>
  <g style="fill:none; stroke:#FFFFFF; stroke-width:  3.6720; stroke-linecap:butt; stroke-linejoin:miter; stroke-dasharray:none">
   <path d="M412.0290,533.6800L436.5090,533.6800"/>
  </g>
  <g style="fill:#FFFFFF; fill-rule:nonzero">
   <path  d="M412.0290,541.3300L404.3790,533.6800L412.0290,526.0300L419.6790,533.6800z"/>
  </g>
  <g style="fill:none; stroke:#FFFFFF; stroke-width:  0.9180; stroke-linecap:butt; stroke-linejoin:miter; stroke-dasharray:none">
   <path d="M412.0290,541.3300L404.3790,533.6800L412.0290,526.0300L419.6790,533.6800z"/>
  </g>
  <g style="fill:#FFFFFF; fill-rule:nonzero">
   <path  d="M436.5090,541.3300L428.8590,533.6800L436.5090,526.0300L444.1590,533.6800z"/>
  </g>
  <g style="fill:none; stroke:#FFFFFF; stroke-width:  0.9180; stroke-linecap:butt; stroke-linejoin:miter; stroke-dasharray:none">
   <path d="M436.5090,541.3300L428.8590,533.6800L436.5090,526.0300L444.1590,533.6800z"/>
  </g>
 </g>
</svg>
