<?xml version="1.0" encoding="ISO-8859-1"?>
<!DOCTYPE svg PUBLIC "-//W3C//DTD SVG 1.0//EN" "http://www.w3.org/TR/2001/REC-SVG-20010904/DTD/svg10.dtd">
<!-- generated by Grace-5.1.25 -->
<svg xml:space="preserve" width="11.0000in" height="8.5000in" viewBox="0.0000 0.0000 792.0000 612.0000">
 <g transform="translate(0,612.0000) scale(1,-1)">
  <g style="fill:#FFFFFF; fill-rule:nonzero">
   <path  d="M0.0000,0.0000L0.0000,612.0000L792.0000,612.0000L792.0000,0.0000z"/>
  </g>
  <g style="fill:none; stroke:#000000; stroke-width:  0.9180; stroke-linecap:butt; stroke-linejoin:miter; stroke-dasharray:none">
   <path d="M122.3388,126.1986L167.0954,126.1986L236.4463,126.1986L315.0443,126.1986L402.8895,126.1986L499.9818,126.1986L606.3194,126.1986L721.9060,126.1986L758.9412,126.1986"/>
  </g>
  <g style="fill:none; stroke:#FF0000; stroke-width:  2.7540; stroke-linecap:butt; stroke-linejoin:miter; stroke-dasharray:none">
   <path d="M167.0954,307.5846L236.4463,145.6893L315.0443,122.2500L402.8895,123.8717L499.9818,124.6265L606.3194,124.8856L721.9060,124.9555"/>
  </g>
  <g style="fill:#FF0000; fill-rule:nonzero">
   <ellipse  rx="6.1200" ry="6.1200" cx="167.0954" cy="307.5846"/>
  </g>
  <g style="fill:none; stroke:#FF0000; stroke-width:  0.9180; stroke-linecap:butt; stroke-linejoin:miter; stroke-dasharray:none">
   <ellipse  rx="6.1200" ry="6.1200" cx="167.0954" cy="307.5846"/>
  </g>
  <g style="fill:#FF0000; fill-rule:nonzero">
   <ellipse  rx="6.1200" ry="6.1200" cx="236.4463" cy="145.6893"/>
  </g>
  <g style="fill:none; stroke:#FF0000; stroke-width:  0.9180; stroke-linecap:butt; stroke-linejoin:miter; stroke-dasharray:none">
   <ellipse  rx="6.1200" ry="6.1200" cx="236.4463" cy="145.6893"/>
  </g>
  <g style="fill:#FF0000; fill-rule:nonzero">
   <ellipse  rx="6.1200" ry="6.1200" cx="315.0443" cy="122.2500"/>
  </g>
  <g style="fill:none; stroke:#FF0000; stroke-width:  0.9180; stroke-linecap:butt; stroke-linejoin:miter; stroke-dasharray:none">
   <ellipse  rx="6.1200" ry="6.1200" cx="315.0443" cy="122.2500"/>
  </g>
  <g style="fill:#FF0000; fill-rule:nonzero">
   <ellipse  rx="6.1200" ry="6.1200" cx="402.8895" cy="123.8717"/>
  </g>
  <g style="fill:none; stroke:#FF0000; stroke-width:  0.9180; stroke-linecap:butt; stroke-linejoin:miter; stroke-dasharray:none">
   <ellipse  rx="6.1200" ry="6.1200" cx="402.8895" cy="123.8717"/>
  </g>
  <g style="fill:#FF0000; fill-rule:nonzero">
   <ellipse  rx="6.1200" ry="6.1200" cx="499.9818" cy="124.6265"/>
  </g>
  <g style="fill:none; stroke:#FF0000; stroke-width:  0.9180; stroke-linecap:butt; stroke-linejoin:miter; stroke-dasharray:none">
   <ellipse  rx="6.1200" ry="6.1200" cx="499.9818" cy="124.6265"/>
  </g>
  <g style="fill:#FF0000; fill-rule:nonzero">
   <ellipse  rx="6.1200" ry="6.1200" cx="606.3194" cy="124.8856"/>
  </g>
  <g style="fill:none; stroke:#FF0000; stroke-width:  0.9180; stroke-linecap:butt; stroke-linejoin:miter; stroke-dasharray:none">
   <ellipse  rx="6.1200" ry="6.1200" cx="606.3194" cy="124.8856"/>
  </g>
  <g style="fill:#FF0000; fill-rule:nonzero">
   <ellipse  rx="6.1200" ry="6.1200" cx="721.9060" cy="124.9555"/>
  </g>
  <g style="fill:none; stroke:#FF0000; stroke-width:  0.9180; stroke-linecap:butt; stroke-linejoin:miter; stroke-dasharray:none">
   <ellipse  rx="6.1200" ry="6.1200" cx="721.9060" cy="124.9555"/>
  </g>
  <g style="fill:none; stroke:#0000FF; stroke-width:  2.7540; stroke-linecap:butt; stroke-linejoin:miter; stroke-dasharray:none">
   <path d="M167.0954,322.9218L236.4463,135.1254L315.0443,114.2056L402.8895,118.9846L499.9818,121.8583L606.3194,123.0852L721.9060,124.2137"/>
  </g>
  <g style="fill:#0000FF; fill-rule:nonzero">
   <path  d="M167.0954,329.9886L160.9754,319.3884L173.2154,319.3884z"/>
  </g>
  <g style="fill:none; stroke:#0000FF; stroke-width:  0.9180; stroke-linecap:butt; stroke-linejoin:miter; stroke-dasharray:none">
   <path d="M167.0954,329.9886L160.9754,319.3884L173.2154,319.3884z"/>
  </g>
  <g style="fill:#0000FF; fill-rule:nonzero">
   <path  d="M236.4463,142.1921L230.3263,131.5920L242.5663,131.5920z"/>
  </g>
  <g style="fill:none; stroke:#0000FF; stroke-width:  0.9180; stroke-linecap:butt; stroke-linejoin:miter; stroke-dasharray:none">
   <path d="M236.4463,142.1921L230.3263,131.5920L242.5663,131.5920z"/>
  </g>
  <g style="fill:#0000FF; fill-rule:nonzero">
   <path  d="M315.0443,121.2723L308.9243,110.6722L321.1643,110.6722z"/>
  </g>
  <g style="fill:none; stroke:#0000FF; stroke-width:  0.9180; stroke-linecap:butt; stroke-linejoin:miter; stroke-dasharray:none">
   <path d="M315.0443,121.2723L308.9243,110.6722L321.1643,110.6722z"/>
  </g>
  <g style="fill:#0000FF; fill-rule:nonzero">
   <path  d="M402.8895,126.0514L396.7695,115.4512L409.0095,115.4512z"/>
  </g>
  <g style="fill:none; stroke:#0000FF; stroke-width:  0.9180; stroke-linecap:butt; stroke-linejoin:miter; stroke-dasharray:none">
   <path d="M402.8895,126.0514L396.7695,115.4512L409.0095,115.4512z"/>
  </g>
  <g style="fill:#0000FF; fill-rule:nonzero">
   <path  d="M499.9818,128.9251L493.8618,118.3250L506.1018,118.3250z"/>
  </g>
  <g style="fill:none; stroke:#0000FF; stroke-width:  0.9180; stroke-linecap:butt; stroke-linejoin:miter; stroke-dasharray:none">
   <path d="M499.9818,128.9251L493.8618,118.3250L506.1018,118.3250z"/>
  </g>
  <g style="fill:#0000FF; fill-rule:nonzero">
   <path  d="M606.3194,130.1520L600.1994,119.5518L612.4394,119.5518z"/>
  </g>
  <g style="fill:none; stroke:#0000FF; stroke-width:  0.9180; stroke-linecap:butt; stroke-linejoin:miter; stroke-dasharray:none">
   <path d="M606.3194,130.1520L600.1994,119.5518L612.4394,119.5518z"/>
  </g>
  <g style="fill:#0000FF; fill-rule:nonzero">
   <path  d="M721.9060,131.2805L715.7860,120.6803L728.0260,120.6803z"/>
  </g>
  <g style="fill:none; stroke:#0000FF; stroke-width:  0.9180; stroke-linecap:butt; stroke-linejoin:miter; stroke-dasharray:none">
   <path d="M721.9060,131.2805L715.7860,120.6803L728.0260,120.6803z"/>
  </g>
  <g style="fill:none; stroke:#008B00; stroke-width:  2.7540; stroke-linecap:butt; stroke-linejoin:miter; stroke-dasharray:none">
   <path d="M219.7894,532.5012L236.4463,358.1600L315.0443,186.9780L402.8895,145.3415L499.9818,132.4101L606.3194,127.8870L721.9060,126.2352"/>
  </g>
  <g style="fill:#008B00; fill-rule:nonzero">
   <path  d="M231.2443,352.9580L231.2443,363.3620L241.6483,363.3620L241.6483,352.9580z"/>
  </g>
  <g style="fill:none; stroke:#008B00; stroke-width:  0.9180; stroke-linecap:butt; stroke-linejoin:miter; stroke-dasharray:none">
   <path d="M231.2443,352.9580L231.2443,363.3620L241.6483,363.3620L241.6483,352.9580z"/>
  </g>
  <g style="fill:#008B00; fill-rule:nonzero">
   <path  d="M309.8423,181.7760L309.8423,192.1800L320.2463,192.1800L320.2463,181.7760z"/>
  </g>
  <g style="fill:none; stroke:#008B00; stroke-width:  0.9180; stroke-linecap:butt; stroke-linejoin:miter; stroke-dasharray:none">
   <path d="M309.8423,181.7760L309.8423,192.1800L320.2463,192.1800L320.2463,181.7760z"/>
  </g>
  <g style="fill:#008B00; fill-rule:nonzero">
   <path  d="M397.6875,140.1395L397.6875,150.5435L408.0915,150.5435L408.0915,140.1395z"/>
  </g>
  <g style="fill:none; stroke:#008B00; stroke-width:  0.9180; stroke-linecap:butt; stroke-linejoin:miter; stroke-dasharray:none">
   <path d="M397.6875,140.1395L397.6875,150.5435L408.0915,150.5435L408.0915,140.1395z"/>
  </g>
  <g style="fill:#008B00; fill-rule:nonzero">
   <path  d="M494.7798,127.2081L494.7798,137.6121L505.1838,137.6121L505.1838,127.2081z"/>
  </g>
  <g style="fill:none; stroke:#008B00; stroke-width:  0.9180; stroke-linecap:butt; stroke-linejoin:miter; stroke-dasharray:none">
   <path d="M494.7798,127.2081L494.7798,137.6121L505.1838,137.6121L505.1838,127.2081z"/>
  </g>
  <g style="fill:#008B00; fill-rule:nonzero">
   <path  d="M601.1174,122.6850L601.1174,133.0890L611.5214,133.0890L611.5214,122.6850z"/>
  </g>
  <g style="fill:none; stroke:#008B00; stroke-width:  0.9180; stroke-linecap:butt; stroke-linejoin:miter; stroke-dasharray:none">
   <path d="M601.1174,122.6850L601.1174,133.0890L611.5214,133.0890L611.5214,122.6850z"/>
  </g>
  <g style="fill:#008B00; fill-rule:nonzero">
   <path  d="M716.7040,121.0332L716.7040,131.4372L727.1080,131.4372L727.1080,121.0332z"/>
  </g>
  <g style="fill:none; stroke:#008B00; stroke-width:  0.9180; stroke-linecap:butt; stroke-linejoin:miter; stroke-dasharray:none">
   <path d="M716.7040,121.0332L716.7040,131.4372L727.1080,131.4372L727.1080,121.0332z"/>
  </g>
  <g style="fill:none; stroke:#000000; stroke-width:  2.7540; stroke-linecap:butt; stroke-linejoin:miter; stroke-dasharray:none">
   <path d="M268.1431,532.5012L315.0443,313.7676L402.8895,198.3739L499.9818,155.8713L606.3194,138.8149L721.9060,131.5724"/>
  </g>
  <g style="fill:#000000; fill-rule:nonzero">
   <path  d="M308.9243,317.3010L315.0443,306.7008L321.1643,317.3010z"/>
  </g>
  <g style="fill:none; stroke:#000000; stroke-width:  0.9180; stroke-linecap:butt; stroke-linejoin:miter; stroke-dasharray:none">
   <path d="M308.9243,317.3010L315.0443,306.7008L321.1643,317.3010z"/>
  </g>
  <g style="fill:#000000; fill-rule:nonzero">
   <path  d="M396.7695,201.9073L402.8895,191.3071L409.0095,201.9073z"/>
  </g>
  <g style="fill:none; stroke:#000000; stroke-width:  0.9180; stroke-linecap:butt; stroke-linejoin:miter; stroke-dasharray:none">
   <path d="M396.7695,201.9073L402.8895,191.3071L409.0095,201.9073z"/>
  </g>
  <g style="fill:#000000; fill-rule:nonzero">
   <path  d="M493.8618,159.4047L499.9818,148.8045L506.1018,159.4047z"/>
  </g>
  <g style="fill:none; stroke:#000000; stroke-width:  0.9180; stroke-linecap:butt; stroke-linejoin:miter; stroke-dasharray:none">
   <path d="M493.8618,159.4047L499.9818,148.8045L506.1018,159.4047z"/>
  </g>
  <g style="fill:#000000; fill-rule:nonzero">
   <path  d="M600.1994,142.3482L606.3194,131.7481L612.4394,142.3482z"/>
  </g>
  <g style="fill:none; stroke:#000000; stroke-width:  0.9180; stroke-linecap:butt; stroke-linejoin:miter; stroke-dasharray:none">
   <path d="M600.1994,142.3482L606.3194,131.7481L612.4394,142.3482z"/>
  </g>
  <g style="fill:#000000; fill-rule:nonzero">
   <path  d="M715.7860,135.1058L721.9060,124.5056L728.0260,135.1058z"/>
  </g>
  <g style="fill:none; stroke:#000000; stroke-width:  0.9180; stroke-linecap:butt; stroke-linejoin:miter; stroke-dasharray:none">
   <path d="M715.7860,135.1058L721.9060,124.5056L728.0260,135.1058z"/>
   <path d="M122.4000,61.2000L758.8800,61.2000"/>
   <path d="M122.4000,532.4400L758.8800,532.4400"/>
  </g>
  <g style="fill:none; stroke:#000000; stroke-width:  2.7540; stroke-linecap:butt; stroke-linejoin:miter; stroke-dasharray:none">
   <path d="M167.8629,61.2000L167.8629,67.3200"/>
   <path d="M167.8629,532.4400L167.8629,526.3200"/>
   <path d="M258.7886,61.2000L258.7886,67.3200"/>
   <path d="M258.7886,532.4400L258.7886,526.3200"/>
   <path d="M349.7143,61.2000L349.7143,67.3200"/>
   <path d="M349.7143,532.4400L349.7143,526.3200"/>
   <path d="M440.6400,61.2000L440.6400,67.3200"/>
   <path d="M440.6400,532.4400L440.6400,526.3200"/>
   <path d="M531.5657,61.2000L531.5657,67.3200"/>
   <path d="M531.5657,532.4400L531.5657,526.3200"/>
   <path d="M622.4914,61.2000L622.4914,67.3200"/>
   <path d="M622.4914,532.4400L622.4914,526.3200"/>
   <path d="M713.4171,61.2000L713.4171,67.3200"/>
   <path d="M713.4171,532.4400L713.4171,526.3200"/>
   <path d="M122.4000,61.2000L122.4000,73.4400"/>
   <path d="M122.4000,532.4400L122.4000,520.2000"/>
   <path d="M213.3257,61.2000L213.3257,73.4400"/>
   <path d="M213.3257,532.4400L213.3257,520.2000"/>
   <path d="M304.2514,61.2000L304.2514,73.4400"/>
   <path d="M304.2514,532.4400L304.2514,520.2000"/>
   <path d="M395.1771,61.2000L395.1771,73.4400"/>
   <path d="M395.1771,532.4400L395.1771,520.2000"/>
   <path d="M486.1029,61.2000L486.1029,73.4400"/>
   <path d="M486.1029,532.4400L486.1029,520.2000"/>
   <path d="M577.0286,61.2000L577.0286,73.4400"/>
   <path d="M577.0286,532.4400L577.0286,520.2000"/>
   <path d="M667.9543,61.2000L667.9543,73.4400"/>
   <path d="M667.9543,532.4400L667.9543,520.2000"/>
   <path d="M758.8800,61.2000L758.8800,73.4400"/>
   <path d="M758.8800,532.4400L758.8800,520.2000"/>
  </g>
  <g style="fill:#000000; fill-rule:nonzero">
   <text   style="font-family:'Times','Nimbus Roman No9 L'; font-style:normal; font-weight:bold; font-size:612.0000" transform="matrix(0.0420,0.0000,-0.0000,-0.0420,103.4400,37.3200)">100</text>
   <text   style="font-family:'Times','Nimbus Roman No9 L'; font-style:normal; font-weight:bold; font-size:612.0000" transform="matrix(0.0420,0.0000,-0.0000,-0.0420,194.3657,37.3200)">150</text>
   <text   style="font-family:'Times','Nimbus Roman No9 L'; font-style:normal; font-weight:bold; font-size:612.0000" transform="matrix(0.0420,0.0000,-0.0000,-0.0420,285.2914,37.3200)">200</text>
   <text   style="font-family:'Times','Nimbus Roman No9 L'; font-style:normal; font-weight:bold; font-size:612.0000" transform="matrix(0.0420,0.0000,-0.0000,-0.0420,376.2171,37.3200)">250</text>
   <text   style="font-family:'Times','Nimbus Roman No9 L'; font-style:normal; font-weight:bold; font-size:612.0000" transform="matrix(0.0420,0.0000,-0.0000,-0.0420,467.1429,37.3200)">300</text>
   <text   style="font-family:'Times','Nimbus Roman No9 L'; font-style:normal; font-weight:bold; font-size:612.0000" transform="matrix(0.0420,0.0000,-0.0000,-0.0420,558.0686,37.3200)">350</text>
   <text   style="font-family:'Times','Nimbus Roman No9 L'; font-style:normal; font-weight:bold; font-size:612.0000" transform="matrix(0.0420,0.0000,-0.0000,-0.0420,648.9943,37.3200)">400</text>
   <text   style="font-family:'Times','Nimbus Roman No9 L'; font-style:normal; font-weight:bold; font-size:612.0000" transform="matrix(0.0420,0.0000,-0.0000,-0.0420,739.9200,37.3200)">450</text>
   <text   style="font-family:'Times','Nimbus Roman No9 L'; font-style:normal; font-weight:bold; font-size:612.0000" transform="matrix(0.0420,0.0000,-0.0000,-0.0420,331.3200,12.7200)">Energy cutoff (Ryd)</text>
  </g>
  <g style="fill:none; stroke:#000000; stroke-width:  0.9180; stroke-linecap:butt; stroke-linejoin:miter; stroke-dasharray:none">
   <path d="M122.4000,61.2000L122.4000,532.4400"/>
   <path d="M758.8800,61.2000L758.8800,532.4400"/>
  </g>
  <g style="fill:none; stroke:#000000; stroke-width:  2.7540; stroke-linecap:butt; stroke-linejoin:miter; stroke-dasharray:none">
   <path d="M122.4000,85.5745L128.5200,85.5745"/>
   <path d="M758.8800,85.5745L752.7600,85.5745"/>
   <path d="M122.4000,166.8228L128.5200,166.8228"/>
   <path d="M758.8800,166.8228L752.7600,166.8228"/>
   <path d="M122.4000,248.0710L128.5200,248.0710"/>
   <path d="M758.8800,248.0710L752.7600,248.0710"/>
   <path d="M122.4000,329.3193L128.5200,329.3193"/>
   <path d="M758.8800,329.3193L752.7600,329.3193"/>
   <path d="M122.4000,410.5676L128.5200,410.5676"/>
   <path d="M758.8800,410.5676L752.7600,410.5676"/>
   <path d="M122.4000,491.8159L128.5200,491.8159"/>
   <path d="M758.8800,491.8159L752.7600,491.8159"/>
   <path d="M122.4000,126.1986L134.6400,126.1986"/>
   <path d="M758.8800,126.1986L746.6400,126.1986"/>
   <path d="M122.4000,207.4469L134.6400,207.4469"/>
   <path d="M758.8800,207.4469L746.6400,207.4469"/>
   <path d="M122.4000,288.6952L134.6400,288.6952"/>
   <path d="M758.8800,288.6952L746.6400,288.6952"/>
   <path d="M122.4000,369.9434L134.6400,369.9434"/>
   <path d="M758.8800,369.9434L746.6400,369.9434"/>
   <path d="M122.4000,451.1917L134.6400,451.1917"/>
   <path d="M758.8800,451.1917L746.6400,451.1917"/>
   <path d="M122.4000,532.4400L134.6400,532.4400"/>
   <path d="M758.8800,532.4400L746.6400,532.4400"/>
  </g>
  <g style="fill:#000000; fill-rule:nonzero">
   <text   style="font-family:'Times','Nimbus Roman No9 L'; font-style:normal; font-weight:bold; font-size:612.0000" transform="matrix(0.0420,0.0000,-0.0000,-0.0420,104.0400,117.5586)">0</text>
   <text   style="font-family:'Times','Nimbus Roman No9 L'; font-style:normal; font-weight:bold; font-size:612.0000" transform="matrix(0.0420,0.0000,-0.0000,-0.0420,59.8800,198.8069)">0.001</text>
   <text   style="font-family:'Times','Nimbus Roman No9 L'; font-style:normal; font-weight:bold; font-size:612.0000" transform="matrix(0.0420,0.0000,-0.0000,-0.0420,58.9200,280.0552)">0.002</text>
   <text   style="font-family:'Times','Nimbus Roman No9 L'; font-style:normal; font-weight:bold; font-size:612.0000" transform="matrix(0.0420,0.0000,-0.0000,-0.0420,59.1600,361.3034)">0.003</text>
   <text   style="font-family:'Times','Nimbus Roman No9 L'; font-style:normal; font-weight:bold; font-size:612.0000" transform="matrix(0.0420,0.0000,-0.0000,-0.0420,58.9200,442.5517)">0.004</text>
   <text   style="font-family:'Times','Nimbus Roman No9 L'; font-style:normal; font-weight:bold; font-size:612.0000" transform="matrix(0.0420,0.0000,-0.0000,-0.0420,59.1600,523.8000)">0.005</text>
   <text   style="font-family:'Times','Nimbus Roman No9 L'; font-style:normal; font-weight:bold; font-size:612.0000" transform="matrix(0.0000,0.0420,0.0420,-0.0000,48.4800,193.5000)">delta(E) (Ha/atom)</text>
  </g>
  <g style="fill:none; stroke:#000000; stroke-width:  2.7540; stroke-linecap:butt; stroke-linejoin:miter; stroke-dasharray:none">
   <path d="M122.4000,61.2000L122.4000,532.4400L758.8800,532.4400L758.8800,61.2000z"/>
  </g>
  <g style="fill:#FFFFFF; fill-rule:nonzero">
   <path  d="M428.4000,489.6000L428.4000,389.4000L707.6190,389.4000L707.6190,489.6000z"/>
  </g>
  <g style="fill:none; stroke:#000000; stroke-width:  2.7540; stroke-linecap:butt; stroke-linejoin:miter; stroke-dasharray:none">
   <path d="M428.4000,489.6000L428.4000,389.4000L707.6190,389.4000L707.6190,489.6000z"/>
  </g>
  <g style="fill:#000000; fill-rule:nonzero">
   <text   style="font-family:'Times','Nimbus Roman No9 L'; font-style:normal; font-weight:bold; font-size:612.0000" transform="matrix(0.0350,0.0000,-0.0000,-0.0350,477.8190,468.6000)">Adaptive 10th order KE</text>
  </g>
  <g style="fill:none; stroke:#FF0000; stroke-width:  2.7540; stroke-linecap:butt; stroke-linejoin:miter; stroke-dasharray:none">
   <path d="M441.0990,473.7600L465.5790,473.7600"/>
  </g>
  <g style="fill:#FF0000; fill-rule:nonzero">
   <ellipse  rx="6.1200" ry="6.1200" cx="441.0990" cy="473.7600"/>
  </g>
  <g style="fill:none; stroke:#FF0000; stroke-width:  0.9180; stroke-linecap:butt; stroke-linejoin:miter; stroke-dasharray:none">
   <ellipse  rx="6.1200" ry="6.1200" cx="441.0990" cy="473.7600"/>
  </g>
  <g style="fill:#FF0000; fill-rule:nonzero">
   <ellipse  rx="6.1200" ry="6.1200" cx="465.5790" cy="473.7600"/>
  </g>
  <g style="fill:none; stroke:#FF0000; stroke-width:  0.9180; stroke-linecap:butt; stroke-linejoin:miter; stroke-dasharray:none">
   <ellipse  rx="6.1200" ry="6.1200" cx="465.5790" cy="473.7600"/>
  </g>
  <g style="fill:#000000; fill-rule:nonzero">
   <text   style="font-family:'Times','Nimbus Roman No9 L'; font-style:normal; font-weight:bold; font-size:612.0000" transform="matrix(0.0350,0.0000,-0.0000,-0.0350,477.8190,443.0400)">Adaptive 8th order KE</text>
  </g>
  <g style="fill:none; stroke:#0000FF; stroke-width:  2.7540; stroke-linecap:butt; stroke-linejoin:miter; stroke-dasharray:none">
   <path d="M441.0990,448.2000L465.5790,448.2000"/>
  </g>
  <g style="fill:#0000FF; fill-rule:nonzero">
   <path  d="M441.0990,455.2668L434.9790,444.6666L447.2190,444.6666z"/>
  </g>
  <g style="fill:none; stroke:#0000FF; stroke-width:  0.9180; stroke-linecap:butt; stroke-linejoin:miter; stroke-dasharray:none">
   <path d="M441.0990,455.2668L434.9790,444.6666L447.2190,444.6666z"/>
  </g>
  <g style="fill:#0000FF; fill-rule:nonzero">
   <path  d="M465.5790,455.2668L459.4590,444.6666L471.6990,444.6666z"/>
  </g>
  <g style="fill:none; stroke:#0000FF; stroke-width:  0.9180; stroke-linecap:butt; stroke-linejoin:miter; stroke-dasharray:none">
   <path d="M465.5790,455.2668L459.4590,444.6666L471.6990,444.6666z"/>
  </g>
  <g style="fill:#000000; fill-rule:nonzero">
   <text   style="font-family:'Times','Nimbus Roman No9 L'; font-style:normal; font-weight:bold; font-size:612.0000" transform="matrix(0.0350,0.0000,-0.0000,-0.0350,477.8190,417.4800)">Standard 12th order KE</text>
  </g>
  <g style="fill:none; stroke:#008B00; stroke-width:  2.7540; stroke-linecap:butt; stroke-linejoin:miter; stroke-dasharray:none">
   <path d="M441.0990,424.6800L465.5790,424.6800"/>
  </g>
  <g style="fill:#008B00; fill-rule:nonzero">
   <path  d="M435.8970,419.4780L435.8970,429.8820L446.3010,429.8820L446.3010,419.4780z"/>
  </g>
  <g style="fill:none; stroke:#008B00; stroke-width:  0.9180; stroke-linecap:butt; stroke-linejoin:miter; stroke-dasharray:none">
   <path d="M435.8970,419.4780L435.8970,429.8820L446.3010,429.8820L446.3010,419.4780z"/>
  </g>
  <g style="fill:#008B00; fill-rule:nonzero">
   <path  d="M460.3770,419.4780L460.3770,429.8820L470.7810,429.8820L470.7810,419.4780z"/>
  </g>
  <g style="fill:none; stroke:#008B00; stroke-width:  0.9180; stroke-linecap:butt; stroke-linejoin:miter; stroke-dasharray:none">
   <path d="M460.3770,419.4780L460.3770,429.8820L470.7810,429.8820L470.7810,419.4780z"/>
  </g>
  <g style="fill:#000000; fill-rule:nonzero">
   <text   style="font-family:'Times','Nimbus Roman No9 L'; font-style:normal; font-weight:bold; font-size:612.0000" transform="matrix(0.0350,0.0000,-0.0000,-0.0350,477.8190,396.0000)">Standard 10th order KE</text>
  </g>
  <g style="fill:none; stroke:#000000; stroke-width:  2.7540; stroke-linecap:butt; stroke-linejoin:miter; stroke-dasharray:none">
   <path d="M441.0990,403.2000L465.5790,403.2000"/>
  </g>
  <g style="fill:#000000; fill-rule:nonzero">
   <path  d="M434.9790,406.7334L441.0990,396.1332L447.2190,406.7334z"/>
  </g>
  <g style="fill:none; stroke:#000000; stroke-width:  0.9180; stroke-linecap:butt; stroke-linejoin:miter; stroke-dasharray:none">
   <path d="M434.9790,406.7334L441.0990,396.1332L447.2190,406.7334z"/>
  </g>
  <g style="fill:#000000; fill-rule:nonzero">
   <path  d="M459.4590,406.7334L465.5790,396.1332L471.6990,406.7334z"/>
  </g>
  <g style="fill:none; stroke:#000000; stroke-width:  0.9180; stroke-linecap:butt; stroke-linejoin:miter; stroke-dasharray:none">
   <path d="M459.4590,406.7334L465.5790,396.1332L471.6990,406.7334z"/>
  </g>
  <g style="fill:#000000; fill-rule:nonzero">
   <text   style="font-family:'Times','Nimbus Roman No9 L'; font-style:normal; font-weight:bold; font-size:612.0000" transform="matrix(0.0420,0.0000,-0.0000,-0.0420,170.4000,574.4400)">NiO64 finite difference operator convergence test</text>
   <text   style="font-family:'Times','Nimbus Roman No9 L'; font-style:normal; font-weight:bold; font-size:612.0000" transform="matrix(0.0420,0.0000,-0.0000,-0.0420,201.9600,549.9600)">delta(E) = (Quantum Espresso) - RMG v5.0</text>
  </g>
 </g>
</svg>
