<?xml version="1.0" encoding="ISO-8859-1"?>
<!DOCTYPE svg PUBLIC "-//W3C//DTD SVG 1.0//EN" "http://www.w3.org/TR/2001/REC-SVG-20010904/DTD/svg10.dtd">
<!-- generated by Grace-5.1.25 -->
<svg xml:space="preserve" width="11.0000in" height="8.5000in" viewBox="0.0000 0.0000 792.0000 612.0000">
 <g transform="translate(0,612.0000) scale(1,-1)">
  <g style="fill:#FFFFFF; fill-rule:nonzero">
   <path  d="M0.0000,0.0000L0.0000,612.0000L792.0000,612.0000L792.0000,0.0000z"/>
  </g>
  <g style="fill:none; stroke:#000000; stroke-width:  2.7540; stroke-linecap:butt; stroke-linejoin:miter; stroke-dasharray:none">
   <path d="M177.7325,332.3438L244.5963,129.8028L320.3755,133.1097L405.0703,127.9549L498.6806,124.8555L601.2047,123.5320L712.6460,122.3150"/>
  </g>
  <g style="fill:#000000; fill-rule:nonzero">
   <path  d="M170.0825,336.7605L177.7325,323.5103L185.3825,336.7605z"/>
  </g>
  <g style="fill:none; stroke:#000000; stroke-width:  0.9180; stroke-linecap:butt; stroke-linejoin:miter; stroke-dasharray:none">
   <path d="M170.0825,336.7605L177.7325,323.5103L185.3825,336.7605z"/>
  </g>
  <g style="fill:#000000; fill-rule:nonzero">
   <path  d="M236.9463,134.2195L244.5963,120.9693L252.2463,134.2195z"/>
  </g>
  <g style="fill:none; stroke:#000000; stroke-width:  0.9180; stroke-linecap:butt; stroke-linejoin:miter; stroke-dasharray:none">
   <path d="M236.9463,134.2195L244.5963,120.9693L252.2463,134.2195z"/>
  </g>
  <g style="fill:#000000; fill-rule:nonzero">
   <path  d="M312.7255,137.5265L320.3755,124.2763L328.0255,137.5265z"/>
  </g>
  <g style="fill:none; stroke:#000000; stroke-width:  0.9180; stroke-linecap:butt; stroke-linejoin:miter; stroke-dasharray:none">
   <path d="M312.7255,137.5265L320.3755,124.2763L328.0255,137.5265z"/>
  </g>
  <g style="fill:#000000; fill-rule:nonzero">
   <path  d="M397.4203,132.3716L405.0703,119.1215L412.7203,132.3716z"/>
  </g>
  <g style="fill:none; stroke:#000000; stroke-width:  0.9180; stroke-linecap:butt; stroke-linejoin:miter; stroke-dasharray:none">
   <path d="M397.4203,132.3716L405.0703,119.1215L412.7203,132.3716z"/>
  </g>
  <g style="fill:#000000; fill-rule:nonzero">
   <path  d="M491.0306,129.2722L498.6806,116.0220L506.3306,129.2722z"/>
  </g>
  <g style="fill:none; stroke:#000000; stroke-width:  0.9180; stroke-linecap:butt; stroke-linejoin:miter; stroke-dasharray:none">
   <path d="M491.0306,129.2722L498.6806,116.0220L506.3306,129.2722z"/>
  </g>
  <g style="fill:#000000; fill-rule:nonzero">
   <path  d="M593.5547,127.9487L601.2047,114.6985L608.8547,127.9487z"/>
  </g>
  <g style="fill:none; stroke:#000000; stroke-width:  0.9180; stroke-linecap:butt; stroke-linejoin:miter; stroke-dasharray:none">
   <path d="M593.5547,127.9487L601.2047,114.6985L608.8547,127.9487z"/>
  </g>
  <g style="fill:#000000; fill-rule:nonzero">
   <path  d="M704.9960,126.7317L712.6460,113.4815L720.2960,126.7317z"/>
  </g>
  <g style="fill:none; stroke:#000000; stroke-width:  0.9180; stroke-linecap:butt; stroke-linejoin:miter; stroke-dasharray:none">
   <path d="M704.9960,126.7317L712.6460,113.4815L720.2960,126.7317z"/>
  </g>
  <g style="fill:none; stroke:#FF0000; stroke-width:  2.7540; stroke-linecap:butt; stroke-linejoin:miter; stroke-dasharray:none">
   <path d="M177.7325,315.8016L244.5963,141.1957L320.3755,124.4330L405.0703,122.6842L498.6806,121.8701L601.2047,121.5906L712.6460,121.5149"/>
  </g>
  <g style="fill:#FF0000; fill-rule:nonzero">
   <ellipse  rx="7.6500" ry="7.6500" cx="177.7325" cy="315.8016"/>
  </g>
  <g style="fill:none; stroke:#FF0000; stroke-width:  0.9180; stroke-linecap:butt; stroke-linejoin:miter; stroke-dasharray:none">
   <ellipse  rx="7.6500" ry="7.6500" cx="177.7325" cy="315.8016"/>
  </g>
  <g style="fill:#FF0000; fill-rule:nonzero">
   <ellipse  rx="7.6500" ry="7.6500" cx="244.5963" cy="141.1957"/>
  </g>
  <g style="fill:none; stroke:#FF0000; stroke-width:  0.9180; stroke-linecap:butt; stroke-linejoin:miter; stroke-dasharray:none">
   <ellipse  rx="7.6500" ry="7.6500" cx="244.5963" cy="141.1957"/>
  </g>
  <g style="fill:#FF0000; fill-rule:nonzero">
   <ellipse  rx="7.6500" ry="7.6500" cx="320.3755" cy="124.4330"/>
  </g>
  <g style="fill:none; stroke:#FF0000; stroke-width:  0.9180; stroke-linecap:butt; stroke-linejoin:miter; stroke-dasharray:none">
   <ellipse  rx="7.6500" ry="7.6500" cx="320.3755" cy="124.4330"/>
  </g>
  <g style="fill:#FF0000; fill-rule:nonzero">
   <ellipse  rx="7.6500" ry="7.6500" cx="405.0703" cy="122.6842"/>
  </g>
  <g style="fill:none; stroke:#FF0000; stroke-width:  0.9180; stroke-linecap:butt; stroke-linejoin:miter; stroke-dasharray:none">
   <ellipse  rx="7.6500" ry="7.6500" cx="405.0703" cy="122.6842"/>
  </g>
  <g style="fill:#FF0000; fill-rule:nonzero">
   <ellipse  rx="7.6500" ry="7.6500" cx="498.6806" cy="121.8701"/>
  </g>
  <g style="fill:none; stroke:#FF0000; stroke-width:  0.9180; stroke-linecap:butt; stroke-linejoin:miter; stroke-dasharray:none">
   <ellipse  rx="7.6500" ry="7.6500" cx="498.6806" cy="121.8701"/>
  </g>
  <g style="fill:#FF0000; fill-rule:nonzero">
   <ellipse  rx="7.6500" ry="7.6500" cx="601.2047" cy="121.5906"/>
  </g>
  <g style="fill:none; stroke:#FF0000; stroke-width:  0.9180; stroke-linecap:butt; stroke-linejoin:miter; stroke-dasharray:none">
   <ellipse  rx="7.6500" ry="7.6500" cx="601.2047" cy="121.5906"/>
  </g>
  <g style="fill:#FF0000; fill-rule:nonzero">
   <ellipse  rx="7.6500" ry="7.6500" cx="712.6460" cy="121.5149"/>
  </g>
  <g style="fill:none; stroke:#FF0000; stroke-width:  0.9180; stroke-linecap:butt; stroke-linejoin:miter; stroke-dasharray:none">
   <ellipse  rx="7.6500" ry="7.6500" cx="712.6460" cy="121.5149"/>
  </g>
  <g style="fill:none; stroke:#00FF00; stroke-width:  2.7540; stroke-linecap:butt; stroke-linejoin:miter; stroke-dasharray:none">
   <path d="M269.5584,587.5812L320.3755,322.4697L405.0703,198.0165L498.6806,152.1765L601.2047,133.7818L712.6460,125.9696"/>
  </g>
  <g style="fill:#00FF00; fill-rule:nonzero">
   <path  d="M313.8730,315.9672L313.8730,328.9722L326.8780,328.9722L326.8780,315.9672z"/>
  </g>
  <g style="fill:none; stroke:#00FF00; stroke-width:  0.9180; stroke-linecap:butt; stroke-linejoin:miter; stroke-dasharray:none">
   <path d="M313.8730,315.9672L313.8730,328.9722L326.8780,328.9722L326.8780,315.9672z"/>
  </g>
  <g style="fill:#00FF00; fill-rule:nonzero">
   <path  d="M398.5678,191.5140L398.5678,204.5190L411.5728,204.5190L411.5728,191.5140z"/>
  </g>
  <g style="fill:none; stroke:#00FF00; stroke-width:  0.9180; stroke-linecap:butt; stroke-linejoin:miter; stroke-dasharray:none">
   <path d="M398.5678,191.5140L398.5678,204.5190L411.5728,204.5190L411.5728,191.5140z"/>
  </g>
  <g style="fill:#00FF00; fill-rule:nonzero">
   <path  d="M492.1781,145.6740L492.1781,158.6790L505.1831,158.6790L505.1831,145.6740z"/>
  </g>
  <g style="fill:none; stroke:#00FF00; stroke-width:  0.9180; stroke-linecap:butt; stroke-linejoin:miter; stroke-dasharray:none">
   <path d="M492.1781,145.6740L492.1781,158.6790L505.1831,158.6790L505.1831,145.6740z"/>
  </g>
  <g style="fill:#00FF00; fill-rule:nonzero">
   <path  d="M594.7022,127.2793L594.7022,140.2843L607.7072,140.2843L607.7072,127.2793z"/>
  </g>
  <g style="fill:none; stroke:#00FF00; stroke-width:  0.9180; stroke-linecap:butt; stroke-linejoin:miter; stroke-dasharray:none">
   <path d="M594.7022,127.2793L594.7022,140.2843L607.7072,140.2843L607.7072,127.2793z"/>
  </g>
  <g style="fill:#00FF00; fill-rule:nonzero">
   <path  d="M706.1435,119.4671L706.1435,132.4721L719.1485,132.4721L719.1485,119.4671z"/>
  </g>
  <g style="fill:none; stroke:#00FF00; stroke-width:  0.9180; stroke-linecap:butt; stroke-linejoin:miter; stroke-dasharray:none">
   <path d="M706.1435,119.4671L706.1435,132.4721L719.1485,132.4721L719.1485,119.4671z"/>
  </g>
  <g style="fill:none; stroke:#0000FF; stroke-width:  2.7540; stroke-linecap:butt; stroke-linejoin:miter; stroke-dasharray:none">
   <path d="M226.0424,587.5812L244.5963,370.3474L320.3755,185.7263L405.0703,140.8200L498.6806,126.8735L601.2047,121.9953L712.6460,120.2147"/>
  </g>
  <g style="fill:#0000FF; fill-rule:nonzero">
   <path  d="M244.5963,379.1808L236.9463,365.9306L252.2463,365.9306z"/>
  </g>
  <g style="fill:none; stroke:#0000FF; stroke-width:  0.9180; stroke-linecap:butt; stroke-linejoin:miter; stroke-dasharray:none">
   <path d="M244.5963,379.1808L236.9463,365.9306L252.2463,365.9306z"/>
  </g>
  <g style="fill:#0000FF; fill-rule:nonzero">
   <path  d="M320.3755,194.5597L312.7255,181.3096L328.0255,181.3096z"/>
  </g>
  <g style="fill:none; stroke:#0000FF; stroke-width:  0.9180; stroke-linecap:butt; stroke-linejoin:miter; stroke-dasharray:none">
   <path d="M320.3755,194.5597L312.7255,181.3096L328.0255,181.3096z"/>
  </g>
  <g style="fill:#0000FF; fill-rule:nonzero">
   <path  d="M405.0703,149.6535L397.4203,136.4033L412.7203,136.4033z"/>
  </g>
  <g style="fill:none; stroke:#0000FF; stroke-width:  0.9180; stroke-linecap:butt; stroke-linejoin:miter; stroke-dasharray:none">
   <path d="M405.0703,149.6535L397.4203,136.4033L412.7203,136.4033z"/>
  </g>
  <g style="fill:#0000FF; fill-rule:nonzero">
   <path  d="M498.6806,135.7069L491.0306,122.4567L506.3306,122.4567z"/>
  </g>
  <g style="fill:none; stroke:#0000FF; stroke-width:  0.9180; stroke-linecap:butt; stroke-linejoin:miter; stroke-dasharray:none">
   <path d="M498.6806,135.7069L491.0306,122.4567L506.3306,122.4567z"/>
  </g>
  <g style="fill:#0000FF; fill-rule:nonzero">
   <path  d="M601.2047,130.8288L593.5547,117.5786L608.8547,117.5786z"/>
  </g>
  <g style="fill:none; stroke:#0000FF; stroke-width:  0.9180; stroke-linecap:butt; stroke-linejoin:miter; stroke-dasharray:none">
   <path d="M601.2047,130.8288L593.5547,117.5786L608.8547,117.5786z"/>
  </g>
  <g style="fill:#0000FF; fill-rule:nonzero">
   <path  d="M712.6460,129.0482L704.9960,115.7980L720.2960,115.7980z"/>
  </g>
  <g style="fill:none; stroke:#0000FF; stroke-width:  0.9180; stroke-linecap:butt; stroke-linejoin:miter; stroke-dasharray:none">
   <path d="M712.6460,129.0482L704.9960,115.7980L720.2960,115.7980z"/>
  </g>
  <g style="fill:none; stroke:#000000; stroke-width:  1.3770; stroke-linecap:butt; stroke-linejoin:miter; stroke-dasharray:none">
   <path d="M134.5788,120.1745L177.7325,120.1745L244.5963,120.1745L320.3755,120.1745L405.0703,120.1745L498.6806,120.1745L601.2047,120.1745L712.6460,120.1745L783.4212,120.1745"/>
  </g>
  <g style="fill:none; stroke:#000000; stroke-width:  0.9180; stroke-linecap:butt; stroke-linejoin:miter; stroke-dasharray:none">
   <path d="M134.6400,73.4400L783.3600,73.4400"/>
   <path d="M134.6400,587.5200L783.3600,587.5200"/>
  </g>
  <g style="fill:none; stroke:#000000; stroke-width:  2.7540; stroke-linecap:butt; stroke-linejoin:miter; stroke-dasharray:none">
   <path d="M222.3049,73.4400L222.3049,79.5600"/>
   <path d="M222.3049,587.5200L222.3049,581.4000"/>
   <path d="M397.6346,73.4400L397.6346,79.5600"/>
   <path d="M397.6346,587.5200L397.6346,581.4000"/>
   <path d="M572.9643,73.4400L572.9643,79.5600"/>
   <path d="M572.9643,587.5200L572.9643,581.4000"/>
   <path d="M748.2941,73.4400L748.2941,79.5600"/>
   <path d="M748.2941,587.5200L748.2941,581.4000"/>
   <path d="M134.6400,73.4400L134.6400,85.6800"/>
   <path d="M134.6400,587.5200L134.6400,575.2800"/>
   <path d="M309.9697,73.4400L309.9697,85.6800"/>
   <path d="M309.9697,587.5200L309.9697,575.2800"/>
   <path d="M485.2995,73.4400L485.2995,85.6800"/>
   <path d="M485.2995,587.5200L485.2995,575.2800"/>
   <path d="M660.6292,73.4400L660.6292,85.6800"/>
   <path d="M660.6292,587.5200L660.6292,575.2800"/>
  </g>
  <g style="fill:#000000; fill-rule:nonzero">
   <text   style="font-family:'Times','Nimbus Roman No9 L'; font-style:normal; font-weight:bold; font-size:612.0000" transform="matrix(0.0560,0.0000,-0.0000,-0.0560,109.1400,43.3200)">100</text>
   <text   style="font-family:'Times','Nimbus Roman No9 L'; font-style:normal; font-weight:bold; font-size:612.0000" transform="matrix(0.0560,0.0000,-0.0000,-0.0560,284.4697,43.3200)">200</text>
   <text   style="font-family:'Times','Nimbus Roman No9 L'; font-style:normal; font-weight:bold; font-size:612.0000" transform="matrix(0.0560,0.0000,-0.0000,-0.0560,459.7995,43.3200)">300</text>
   <text   style="font-family:'Times','Nimbus Roman No9 L'; font-style:normal; font-weight:bold; font-size:612.0000" transform="matrix(0.0560,0.0000,-0.0000,-0.0560,635.1292,43.3200)">400</text>
   <text   style="font-family:'Times','Nimbus Roman No9 L'; font-style:normal; font-weight:bold; font-size:612.0000" transform="matrix(0.0560,0.0000,-0.0000,-0.0560,313.0000,12.2000)">Energy cutoff (Ryd)</text>
  </g>
  <g style="fill:none; stroke:#000000; stroke-width:  0.9180; stroke-linecap:butt; stroke-linejoin:miter; stroke-dasharray:none">
   <path d="M134.6400,73.4400L134.6400,587.5200"/>
   <path d="M783.3600,73.4400L783.3600,587.5200"/>
  </g>
  <g style="fill:none; stroke:#000000; stroke-width:  2.7540; stroke-linecap:butt; stroke-linejoin:miter; stroke-dasharray:none">
   <path d="M134.6400,120.1745L146.8800,120.1745"/>
   <path d="M783.3600,120.1745L771.1200,120.1745"/>
   <path d="M134.6400,307.1127L146.8800,307.1127"/>
   <path d="M783.3600,307.1127L771.1200,307.1127"/>
   <path d="M134.6400,494.0509L146.8800,494.0509"/>
   <path d="M783.3600,494.0509L771.1200,494.0509"/>
  </g>
  <g style="fill:#000000; fill-rule:nonzero">
   <text   style="font-family:'Times','Nimbus Roman No9 L'; font-style:normal; font-weight:bold; font-size:612.0000" transform="matrix(0.0560,0.0000,-0.0000,-0.0560,103.5200,108.6745)"> 0</text>
   <text   style="font-family:'Times','Nimbus Roman No9 L'; font-style:normal; font-weight:bold; font-size:612.0000" transform="matrix(0.0560,0.0000,-0.0000,-0.0560,43.5200,295.6127)"> 0.002</text>
   <text   style="font-family:'Times','Nimbus Roman No9 L'; font-style:normal; font-weight:bold; font-size:612.0000" transform="matrix(0.0560,0.0000,-0.0000,-0.0560,43.5200,482.5509)"> 0.004</text>
   <text   style="font-family:'Symbol','Standard Symbols L'; font-style:normal; font-weight:normal; font-size:612.0000" transform="matrix(0.0000,0.0560,0.0560,-0.0000,31.4000,229.4800)">D</text>
   <text   style="font-family:'Times','Nimbus Roman No9 L'; font-style:normal; font-weight:bold; font-size:612.0000" transform="matrix(0.0000,0.0560,0.0560,-0.0000,31.4000,250.4800)">E (Ha/atom)</text>
  </g>
  <g style="fill:none; stroke:#000000; stroke-width:  2.7540; stroke-linecap:butt; stroke-linejoin:miter; stroke-dasharray:none">
   <path d="M134.6400,73.4400L134.6400,587.5200L783.3600,587.5200L783.3600,73.4400z"/>
  </g>
  <g style="fill:#FFFFFF; fill-rule:nonzero">
   <path  d="M397.8000,550.8000L397.8000,422.2000L766.3990,422.2000L766.3990,550.8000z"/>
  </g>
  <g style="fill:none; stroke:#000000; stroke-width:  2.7540; stroke-linecap:butt; stroke-linejoin:miter; stroke-dasharray:none">
   <path d="M397.8000,550.8000L397.8000,422.2000L766.3990,422.2000L766.3990,550.8000z"/>
  </g>
  <g style="fill:#000000; fill-rule:nonzero">
   <text   style="font-family:'Times','Nimbus Roman No9 L'; font-style:normal; font-weight:bold; font-size:612.0000" transform="matrix(0.0490,0.0000,-0.0000,-0.0490,450.2790,523.6800)">Adaptive  8th order FD</text>
  </g>
  <g style="fill:none; stroke:#000000; stroke-width:  2.7540; stroke-linecap:butt; stroke-linejoin:miter; stroke-dasharray:none">
   <path d="M412.0290,531.1800L436.5090,531.1800"/>
  </g>
  <g style="fill:#000000; fill-rule:nonzero">
   <path  d="M404.3790,535.5967L412.0290,522.3465L419.6790,535.5967z"/>
  </g>
  <g style="fill:none; stroke:#000000; stroke-width:  0.9180; stroke-linecap:butt; stroke-linejoin:miter; stroke-dasharray:none">
   <path d="M404.3790,535.5967L412.0290,522.3465L419.6790,535.5967z"/>
  </g>
  <g style="fill:#000000; fill-rule:nonzero">
   <path  d="M428.8590,535.5967L436.5090,522.3465L444.1590,535.5967z"/>
  </g>
  <g style="fill:none; stroke:#000000; stroke-width:  0.9180; stroke-linecap:butt; stroke-linejoin:miter; stroke-dasharray:none">
   <path d="M428.8590,535.5967L436.5090,522.3465L444.1590,535.5967z"/>
  </g>
  <g style="fill:#000000; fill-rule:nonzero">
   <text   style="font-family:'Times','Nimbus Roman No9 L'; font-style:normal; font-weight:bold; font-size:612.0000" transform="matrix(0.0490,0.0000,-0.0000,-0.0490,450.2790,490.5600)">Adaptive 10th order FD</text>
  </g>
  <g style="fill:none; stroke:#FF0000; stroke-width:  2.7540; stroke-linecap:butt; stroke-linejoin:miter; stroke-dasharray:none">
   <path d="M412.0290,498.0600L436.5090,498.0600"/>
  </g>
  <g style="fill:#FF0000; fill-rule:nonzero">
   <ellipse  rx="7.6500" ry="7.6500" cx="412.0290" cy="498.0600"/>
  </g>
  <g style="fill:none; stroke:#FF0000; stroke-width:  0.9180; stroke-linecap:butt; stroke-linejoin:miter; stroke-dasharray:none">
   <ellipse  rx="7.6500" ry="7.6500" cx="412.0290" cy="498.0600"/>
  </g>
  <g style="fill:#FF0000; fill-rule:nonzero">
   <ellipse  rx="7.6500" ry="7.6500" cx="436.5090" cy="498.0600"/>
  </g>
  <g style="fill:none; stroke:#FF0000; stroke-width:  0.9180; stroke-linecap:butt; stroke-linejoin:miter; stroke-dasharray:none">
   <ellipse  rx="7.6500" ry="7.6500" cx="436.5090" cy="498.0600"/>
  </g>
  <g style="fill:#000000; fill-rule:nonzero">
   <text   style="font-family:'Times','Nimbus Roman No9 L'; font-style:normal; font-weight:bold; font-size:612.0000" transform="matrix(0.0490,0.0000,-0.0000,-0.0490,450.2790,457.4400)">Standard 10th order FD</text>
  </g>
  <g style="fill:none; stroke:#00FF00; stroke-width:  2.7540; stroke-linecap:butt; stroke-linejoin:miter; stroke-dasharray:none">
   <path d="M412.0290,467.4400L436.5090,467.4400"/>
  </g>
  <g style="fill:#00FF00; fill-rule:nonzero">
   <path  d="M405.5265,460.9375L405.5265,473.9425L418.5315,473.9425L418.5315,460.9375z"/>
  </g>
  <g style="fill:none; stroke:#00FF00; stroke-width:  0.9180; stroke-linecap:butt; stroke-linejoin:miter; stroke-dasharray:none">
   <path d="M405.5265,460.9375L405.5265,473.9425L418.5315,473.9425L418.5315,460.9375z"/>
  </g>
  <g style="fill:#00FF00; fill-rule:nonzero">
   <path  d="M430.0065,460.9375L430.0065,473.9425L443.0115,473.9425L443.0115,460.9375z"/>
  </g>
  <g style="fill:none; stroke:#00FF00; stroke-width:  0.9180; stroke-linecap:butt; stroke-linejoin:miter; stroke-dasharray:none">
   <path d="M430.0065,460.9375L430.0065,473.9425L443.0115,473.9425L443.0115,460.9375z"/>
  </g>
  <g style="fill:#000000; fill-rule:nonzero">
   <text   style="font-family:'Times','Nimbus Roman No9 L'; font-style:normal; font-weight:bold; font-size:612.0000" transform="matrix(0.0490,0.0000,-0.0000,-0.0490,450.2790,429.3200)">Standard 12th order FD</text>
  </g>
  <g style="fill:none; stroke:#0000FF; stroke-width:  2.7540; stroke-linecap:butt; stroke-linejoin:miter; stroke-dasharray:none">
   <path d="M412.0290,439.3200L436.5090,439.3200"/>
  </g>
  <g style="fill:#0000FF; fill-rule:nonzero">
   <path  d="M412.0290,448.1535L404.3790,434.9033L419.6790,434.9033z"/>
  </g>
  <g style="fill:none; stroke:#0000FF; stroke-width:  0.9180; stroke-linecap:butt; stroke-linejoin:miter; stroke-dasharray:none">
   <path d="M412.0290,448.1535L404.3790,434.9033L419.6790,434.9033z"/>
  </g>
  <g style="fill:#0000FF; fill-rule:nonzero">
   <path  d="M436.5090,448.1535L428.8590,434.9033L444.1590,434.9033z"/>
  </g>
  <g style="fill:none; stroke:#0000FF; stroke-width:  0.9180; stroke-linecap:butt; stroke-linejoin:miter; stroke-dasharray:none">
   <path d="M436.5090,448.1535L428.8590,434.9033L444.1590,434.9033z"/>
  </g>
 </g>
</svg>
