<?xml version="1.0" encoding="ISO-8859-1"?>
<!DOCTYPE svg PUBLIC "-//W3C//DTD SVG 1.0//EN" "http://www.w3.org/TR/2001/REC-SVG-20010904/DTD/svg10.dtd">
<!-- generated by Grace-5.1.25 -->
<svg xml:space="preserve" width="11.0000in" height="8.5000in" viewBox="0.0000 0.0000 792.0000 612.0000">
 <g transform="translate(0,612.0000) scale(1,-1)">
  <g style="fill:#FFFFFF; fill-rule:nonzero">
   <path  d="M0.0000,0.0000L0.0000,612.0000L792.0000,612.0000L792.0000,0.0000z"/>
  </g>
  <g style="fill:none; stroke:#000000; stroke-width:  2.7540; stroke-linecap:butt; stroke-linejoin:miter; stroke-dasharray:none">
   <path d="M221.3285,295.2931L251.1469,253.5077L316.5573,189.1711L387.1543,145.5743L429.1037,134.4047L513.7520,127.8498L558.9613,125.9079L706.1364,124.3138"/>
  </g>
  <g style="fill:#000000; fill-rule:nonzero">
   <path  d="M213.6785,299.7098L221.3285,286.4596L228.9785,299.7098z"/>
  </g>
  <g style="fill:none; stroke:#000000; stroke-width:  0.9180; stroke-linecap:butt; stroke-linejoin:miter; stroke-dasharray:none">
   <path d="M213.6785,299.7098L221.3285,286.4596L228.9785,299.7098z"/>
  </g>
  <g style="fill:#000000; fill-rule:nonzero">
   <path  d="M243.4969,257.9245L251.1469,244.6743L258.7969,257.9245z"/>
  </g>
  <g style="fill:none; stroke:#000000; stroke-width:  0.9180; stroke-linecap:butt; stroke-linejoin:miter; stroke-dasharray:none">
   <path d="M243.4969,257.9245L251.1469,244.6743L258.7969,257.9245z"/>
  </g>
  <g style="fill:#000000; fill-rule:nonzero">
   <path  d="M308.9073,193.5878L316.5573,180.3376L324.2073,193.5878z"/>
  </g>
  <g style="fill:none; stroke:#000000; stroke-width:  0.9180; stroke-linecap:butt; stroke-linejoin:miter; stroke-dasharray:none">
   <path d="M308.9073,193.5878L316.5573,180.3376L324.2073,193.5878z"/>
  </g>
  <g style="fill:#000000; fill-rule:nonzero">
   <path  d="M379.5043,149.9910L387.1543,136.7408L394.8043,149.9910z"/>
  </g>
  <g style="fill:none; stroke:#000000; stroke-width:  0.9180; stroke-linecap:butt; stroke-linejoin:miter; stroke-dasharray:none">
   <path d="M379.5043,149.9910L387.1543,136.7408L394.8043,149.9910z"/>
  </g>
  <g style="fill:#000000; fill-rule:nonzero">
   <path  d="M421.4537,138.8215L429.1037,125.5713L436.7537,138.8215z"/>
  </g>
  <g style="fill:none; stroke:#000000; stroke-width:  0.9180; stroke-linecap:butt; stroke-linejoin:miter; stroke-dasharray:none">
   <path d="M421.4537,138.8215L429.1037,125.5713L436.7537,138.8215z"/>
  </g>
  <g style="fill:#000000; fill-rule:nonzero">
   <path  d="M506.1020,132.2665L513.7520,119.0163L521.4020,132.2665z"/>
  </g>
  <g style="fill:none; stroke:#000000; stroke-width:  0.9180; stroke-linecap:butt; stroke-linejoin:miter; stroke-dasharray:none">
   <path d="M506.1020,132.2665L513.7520,119.0163L521.4020,132.2665z"/>
  </g>
  <g style="fill:#000000; fill-rule:nonzero">
   <path  d="M551.3113,130.3247L558.9613,117.0745L566.6113,130.3247z"/>
  </g>
  <g style="fill:none; stroke:#000000; stroke-width:  0.9180; stroke-linecap:butt; stroke-linejoin:miter; stroke-dasharray:none">
   <path d="M551.3113,130.3247L558.9613,117.0745L566.6113,130.3247z"/>
  </g>
  <g style="fill:#000000; fill-rule:nonzero">
   <path  d="M698.4864,128.7306L706.1364,115.4804L713.7864,128.7306z"/>
  </g>
  <g style="fill:none; stroke:#000000; stroke-width:  0.9180; stroke-linecap:butt; stroke-linejoin:miter; stroke-dasharray:none">
   <path d="M698.4864,128.7306L706.1364,115.4804L713.7864,128.7306z"/>
  </g>
  <g style="fill:none; stroke:#FF0000; stroke-width:  2.7540; stroke-linecap:butt; stroke-linejoin:miter; stroke-dasharray:none">
   <path d="M221.3285,297.6069L251.1469,249.9685L316.5573,182.8862L387.1543,140.4111L429.1037,130.2183L513.7520,124.6826L558.9613,123.3838L706.1364,122.6248"/>
  </g>
  <g style="fill:#FF0000; fill-rule:nonzero">
   <ellipse  rx="7.6500" ry="7.6500" cx="221.3285" cy="297.6069"/>
  </g>
  <g style="fill:none; stroke:#FF0000; stroke-width:  0.9180; stroke-linecap:butt; stroke-linejoin:miter; stroke-dasharray:none">
   <ellipse  rx="7.6500" ry="7.6500" cx="221.3285" cy="297.6069"/>
  </g>
  <g style="fill:#FF0000; fill-rule:nonzero">
   <ellipse  rx="7.6500" ry="7.6500" cx="251.1469" cy="249.9685"/>
  </g>
  <g style="fill:none; stroke:#FF0000; stroke-width:  0.9180; stroke-linecap:butt; stroke-linejoin:miter; stroke-dasharray:none">
   <ellipse  rx="7.6500" ry="7.6500" cx="251.1469" cy="249.9685"/>
  </g>
  <g style="fill:#FF0000; fill-rule:nonzero">
   <ellipse  rx="7.6500" ry="7.6500" cx="316.5573" cy="182.8862"/>
  </g>
  <g style="fill:none; stroke:#FF0000; stroke-width:  0.9180; stroke-linecap:butt; stroke-linejoin:miter; stroke-dasharray:none">
   <ellipse  rx="7.6500" ry="7.6500" cx="316.5573" cy="182.8862"/>
  </g>
  <g style="fill:#FF0000; fill-rule:nonzero">
   <ellipse  rx="7.6500" ry="7.6500" cx="387.1543" cy="140.4111"/>
  </g>
  <g style="fill:none; stroke:#FF0000; stroke-width:  0.9180; stroke-linecap:butt; stroke-linejoin:miter; stroke-dasharray:none">
   <ellipse  rx="7.6500" ry="7.6500" cx="387.1543" cy="140.4111"/>
  </g>
  <g style="fill:#FF0000; fill-rule:nonzero">
   <ellipse  rx="7.6500" ry="7.6500" cx="429.1037" cy="130.2183"/>
  </g>
  <g style="fill:none; stroke:#FF0000; stroke-width:  0.9180; stroke-linecap:butt; stroke-linejoin:miter; stroke-dasharray:none">
   <ellipse  rx="7.6500" ry="7.6500" cx="429.1037" cy="130.2183"/>
  </g>
  <g style="fill:#FF0000; fill-rule:nonzero">
   <ellipse  rx="7.6500" ry="7.6500" cx="513.7520" cy="124.6826"/>
  </g>
  <g style="fill:none; stroke:#FF0000; stroke-width:  0.9180; stroke-linecap:butt; stroke-linejoin:miter; stroke-dasharray:none">
   <ellipse  rx="7.6500" ry="7.6500" cx="513.7520" cy="124.6826"/>
  </g>
  <g style="fill:#FF0000; fill-rule:nonzero">
   <ellipse  rx="7.6500" ry="7.6500" cx="558.9613" cy="123.3838"/>
  </g>
  <g style="fill:none; stroke:#FF0000; stroke-width:  0.9180; stroke-linecap:butt; stroke-linejoin:miter; stroke-dasharray:none">
   <ellipse  rx="7.6500" ry="7.6500" cx="558.9613" cy="123.3838"/>
  </g>
  <g style="fill:#FF0000; fill-rule:nonzero">
   <ellipse  rx="7.6500" ry="7.6500" cx="706.1364" cy="122.6248"/>
  </g>
  <g style="fill:none; stroke:#FF0000; stroke-width:  0.9180; stroke-linecap:butt; stroke-linejoin:miter; stroke-dasharray:none">
   <ellipse  rx="7.6500" ry="7.6500" cx="706.1364" cy="122.6248"/>
  </g>
  <g style="fill:none; stroke:#00FF00; stroke-width:  2.7540; stroke-linecap:butt; stroke-linejoin:miter; stroke-dasharray:none">
   <path d="M294.3162,587.5812L316.5573,489.6251L387.1543,348.1307L429.1037,273.5770L513.7520,215.1083L558.9613,185.3375L706.1364,149.2855"/>
  </g>
  <g style="fill:#00FF00; fill-rule:nonzero">
   <path  d="M310.0548,483.1226L310.0548,496.1276L323.0598,496.1276L323.0598,483.1226z"/>
  </g>
  <g style="fill:none; stroke:#00FF00; stroke-width:  0.9180; stroke-linecap:butt; stroke-linejoin:miter; stroke-dasharray:none">
   <path d="M310.0548,483.1226L310.0548,496.1276L323.0598,496.1276L323.0598,483.1226z"/>
  </g>
  <g style="fill:#00FF00; fill-rule:nonzero">
   <path  d="M380.6518,341.6282L380.6518,354.6332L393.6568,354.6332L393.6568,341.6282z"/>
  </g>
  <g style="fill:none; stroke:#00FF00; stroke-width:  0.9180; stroke-linecap:butt; stroke-linejoin:miter; stroke-dasharray:none">
   <path d="M380.6518,341.6282L380.6518,354.6332L393.6568,354.6332L393.6568,341.6282z"/>
  </g>
  <g style="fill:#00FF00; fill-rule:nonzero">
   <path  d="M422.6012,267.0745L422.6012,280.0795L435.6062,280.0795L435.6062,267.0745z"/>
  </g>
  <g style="fill:none; stroke:#00FF00; stroke-width:  0.9180; stroke-linecap:butt; stroke-linejoin:miter; stroke-dasharray:none">
   <path d="M422.6012,267.0745L422.6012,280.0795L435.6062,280.0795L435.6062,267.0745z"/>
  </g>
  <g style="fill:#00FF00; fill-rule:nonzero">
   <path  d="M507.2495,208.6058L507.2495,221.6108L520.2545,221.6108L520.2545,208.6058z"/>
  </g>
  <g style="fill:none; stroke:#00FF00; stroke-width:  0.9180; stroke-linecap:butt; stroke-linejoin:miter; stroke-dasharray:none">
   <path d="M507.2495,208.6058L507.2495,221.6108L520.2545,221.6108L520.2545,208.6058z"/>
  </g>
  <g style="fill:#00FF00; fill-rule:nonzero">
   <path  d="M552.4588,178.8350L552.4588,191.8400L565.4638,191.8400L565.4638,178.8350z"/>
  </g>
  <g style="fill:none; stroke:#00FF00; stroke-width:  0.9180; stroke-linecap:butt; stroke-linejoin:miter; stroke-dasharray:none">
   <path d="M552.4588,178.8350L552.4588,191.8400L565.4638,191.8400L565.4638,178.8350z"/>
  </g>
  <g style="fill:#00FF00; fill-rule:nonzero">
   <path  d="M699.6339,142.7830L699.6339,155.7880L712.6389,155.7880L712.6389,142.7830z"/>
  </g>
  <g style="fill:none; stroke:#00FF00; stroke-width:  0.9180; stroke-linecap:butt; stroke-linejoin:miter; stroke-dasharray:none">
   <path d="M699.6339,142.7830L699.6339,155.7880L712.6389,155.7880L712.6389,142.7830z"/>
  </g>
  <g style="fill:none; stroke:#0000FF; stroke-width:  2.7540; stroke-linecap:butt; stroke-linejoin:miter; stroke-dasharray:none">
   <path d="M239.7197,587.5812L251.1469,477.9663L316.5573,305.4957L387.1543,231.7837L429.1037,191.8060L513.7520,162.0057L558.9613,147.1642L706.1364,130.6253"/>
  </g>
  <g style="fill:#0000FF; fill-rule:nonzero">
   <path  d="M251.1469,486.7997L243.4969,473.5496L258.7969,473.5496z"/>
  </g>
  <g style="fill:none; stroke:#0000FF; stroke-width:  0.9180; stroke-linecap:butt; stroke-linejoin:miter; stroke-dasharray:none">
   <path d="M251.1469,486.7997L243.4969,473.5496L258.7969,473.5496z"/>
  </g>
  <g style="fill:#0000FF; fill-rule:nonzero">
   <path  d="M316.5573,314.3292L308.9073,301.0790L324.2073,301.0790z"/>
  </g>
  <g style="fill:none; stroke:#0000FF; stroke-width:  0.9180; stroke-linecap:butt; stroke-linejoin:miter; stroke-dasharray:none">
   <path d="M316.5573,314.3292L308.9073,301.0790L324.2073,301.0790z"/>
  </g>
  <g style="fill:#0000FF; fill-rule:nonzero">
   <path  d="M387.1543,240.6171L379.5043,227.3669L394.8043,227.3669z"/>
  </g>
  <g style="fill:none; stroke:#0000FF; stroke-width:  0.9180; stroke-linecap:butt; stroke-linejoin:miter; stroke-dasharray:none">
   <path d="M387.1543,240.6171L379.5043,227.3669L394.8043,227.3669z"/>
  </g>
  <g style="fill:#0000FF; fill-rule:nonzero">
   <path  d="M429.1037,200.6394L421.4537,187.3893L436.7537,187.3893z"/>
  </g>
  <g style="fill:none; stroke:#0000FF; stroke-width:  0.9180; stroke-linecap:butt; stroke-linejoin:miter; stroke-dasharray:none">
   <path d="M429.1037,200.6394L421.4537,187.3893L436.7537,187.3893z"/>
  </g>
  <g style="fill:#0000FF; fill-rule:nonzero">
   <path  d="M513.7520,170.8392L506.1020,157.5890L521.4020,157.5890z"/>
  </g>
  <g style="fill:none; stroke:#0000FF; stroke-width:  0.9180; stroke-linecap:butt; stroke-linejoin:miter; stroke-dasharray:none">
   <path d="M513.7520,170.8392L506.1020,157.5890L521.4020,157.5890z"/>
  </g>
  <g style="fill:#0000FF; fill-rule:nonzero">
   <path  d="M558.9613,155.9977L551.3113,142.7475L566.6113,142.7475z"/>
  </g>
  <g style="fill:none; stroke:#0000FF; stroke-width:  0.9180; stroke-linecap:butt; stroke-linejoin:miter; stroke-dasharray:none">
   <path d="M558.9613,155.9977L551.3113,142.7475L566.6113,142.7475z"/>
  </g>
  <g style="fill:#0000FF; fill-rule:nonzero">
   <path  d="M706.1364,139.4588L698.4864,126.2086L713.7864,126.2086z"/>
  </g>
  <g style="fill:none; stroke:#0000FF; stroke-width:  0.9180; stroke-linecap:butt; stroke-linejoin:miter; stroke-dasharray:none">
   <path d="M706.1364,139.4588L698.4864,126.2086L713.7864,126.2086z"/>
  </g>
  <g style="fill:none; stroke:#000000; stroke-width:  1.3770; stroke-linecap:butt; stroke-linejoin:miter; stroke-dasharray:none">
   <path d="M783.4212,120.1745L134.5788,120.1745"/>
  </g>
  <g style="fill:none; stroke:#000000; stroke-width:  0.9180; stroke-linecap:butt; stroke-linejoin:miter; stroke-dasharray:none">
   <path d="M134.6400,73.4400L783.3600,73.4400"/>
   <path d="M134.6400,587.5200L783.3600,587.5200"/>
  </g>
  <g style="fill:none; stroke:#000000; stroke-width:  2.7540; stroke-linecap:butt; stroke-linejoin:miter; stroke-dasharray:none">
   <path d="M248.1660,73.4400L248.1660,79.5600"/>
   <path d="M248.1660,587.5200L248.1660,581.4000"/>
   <path d="M410.3460,73.4400L410.3460,79.5600"/>
   <path d="M410.3460,587.5200L410.3460,581.4000"/>
   <path d="M572.5260,73.4400L572.5260,79.5600"/>
   <path d="M572.5260,587.5200L572.5260,581.4000"/>
   <path d="M734.7060,73.4400L734.7060,79.5600"/>
   <path d="M734.7060,587.5200L734.7060,581.4000"/>
   <path d="M167.0760,73.4400L167.0760,85.6800"/>
   <path d="M167.0760,587.5200L167.0760,575.2800"/>
   <path d="M329.2560,73.4400L329.2560,85.6800"/>
   <path d="M329.2560,587.5200L329.2560,575.2800"/>
   <path d="M491.4360,73.4400L491.4360,85.6800"/>
   <path d="M491.4360,587.5200L491.4360,575.2800"/>
   <path d="M653.6160,73.4400L653.6160,85.6800"/>
   <path d="M653.6160,587.5200L653.6160,575.2800"/>
  </g>
  <g style="fill:#000000; fill-rule:nonzero">
   <text   style="font-family:'Times','Nimbus Roman No9 L'; font-style:normal; font-weight:bold; font-size:612.0000" transform="matrix(0.0560,0.0000,-0.0000,-0.0560,150.0760,43.3200)">50</text>
   <text   style="font-family:'Times','Nimbus Roman No9 L'; font-style:normal; font-weight:bold; font-size:612.0000" transform="matrix(0.0560,0.0000,-0.0000,-0.0560,303.7560,43.3200)">100</text>
   <text   style="font-family:'Times','Nimbus Roman No9 L'; font-style:normal; font-weight:bold; font-size:612.0000" transform="matrix(0.0560,0.0000,-0.0000,-0.0560,465.9360,43.3200)">150</text>
   <text   style="font-family:'Times','Nimbus Roman No9 L'; font-style:normal; font-weight:bold; font-size:612.0000" transform="matrix(0.0560,0.0000,-0.0000,-0.0560,628.1160,43.3200)">200</text>
   <text   style="font-family:'Times','Nimbus Roman No9 L'; font-style:normal; font-weight:bold; font-size:612.0000" transform="matrix(0.0560,0.0000,-0.0000,-0.0560,313.0000,12.2000)">Energy cutoff (Ryd)</text>
  </g>
  <g style="fill:none; stroke:#000000; stroke-width:  0.9180; stroke-linecap:butt; stroke-linejoin:miter; stroke-dasharray:none">
   <path d="M134.6400,73.4400L134.6400,587.5200"/>
   <path d="M783.3600,73.4400L783.3600,587.5200"/>
  </g>
  <g style="fill:none; stroke:#000000; stroke-width:  2.7540; stroke-linecap:butt; stroke-linejoin:miter; stroke-dasharray:none">
   <path d="M134.6400,587.5200L140.7600,587.5200"/>
   <path d="M783.3600,587.5200L777.2400,587.5200"/>
   <path d="M134.6400,120.1745L146.8800,120.1745"/>
   <path d="M783.3600,120.1745L771.1200,120.1745"/>
   <path d="M134.6400,260.3782L146.8800,260.3782"/>
   <path d="M783.3600,260.3782L771.1200,260.3782"/>
   <path d="M134.6400,400.5818L146.8800,400.5818"/>
   <path d="M783.3600,400.5818L771.1200,400.5818"/>
   <path d="M134.6400,540.7855L146.8800,540.7855"/>
   <path d="M783.3600,540.7855L771.1200,540.7855"/>
  </g>
  <g style="fill:#000000; fill-rule:nonzero">
   <text   style="font-family:'Times','Nimbus Roman No9 L'; font-style:normal; font-weight:bold; font-size:612.0000" transform="matrix(0.0560,0.0000,-0.0000,-0.0560,103.5200,108.6745)"> 0</text>
   <text   style="font-family:'Times','Nimbus Roman No9 L'; font-style:normal; font-weight:bold; font-size:612.0000" transform="matrix(0.0560,0.0000,-0.0000,-0.0560,43.5200,248.8782)"> 0.003</text>
   <text   style="font-family:'Times','Nimbus Roman No9 L'; font-style:normal; font-weight:bold; font-size:612.0000" transform="matrix(0.0560,0.0000,-0.0000,-0.0560,43.5200,389.0818)"> 0.006</text>
   <text   style="font-family:'Times','Nimbus Roman No9 L'; font-style:normal; font-weight:bold; font-size:612.0000" transform="matrix(0.0560,0.0000,-0.0000,-0.0560,43.5200,529.2855)"> 0.009</text>
   <text   style="font-family:'Symbol','Standard Symbols L'; font-style:normal; font-weight:normal; font-size:612.0000" transform="matrix(0.0000,0.0560,0.0560,-0.0000,31.4000,229.4800)">D</text>
   <text   style="font-family:'Times','Nimbus Roman No9 L'; font-style:normal; font-weight:bold; font-size:612.0000" transform="matrix(0.0000,0.0560,0.0560,-0.0000,31.4000,250.4800)">E (Ha/atom)</text>
  </g>
  <g style="fill:none; stroke:#000000; stroke-width:  2.7540; stroke-linecap:butt; stroke-linejoin:miter; stroke-dasharray:none">
   <path d="M134.6400,73.4400L134.6400,587.5200L783.3600,587.5200L783.3600,73.4400z"/>
  </g>
  <g style="fill:#FFFFFF; fill-rule:nonzero">
   <path  d="M397.8000,550.8000L397.8000,422.2000L766.3990,422.2000L766.3990,550.8000z"/>
  </g>
  <g style="fill:none; stroke:#000000; stroke-width:  2.7540; stroke-linecap:butt; stroke-linejoin:miter; stroke-dasharray:none">
   <path d="M397.8000,550.8000L397.8000,422.2000L766.3990,422.2000L766.3990,550.8000z"/>
  </g>
  <g style="fill:#000000; fill-rule:nonzero">
   <text   style="font-family:'Times','Nimbus Roman No9 L'; font-style:normal; font-weight:bold; font-size:612.0000" transform="matrix(0.0490,0.0000,-0.0000,-0.0490,450.2790,523.6800)">Adaptive  8th order FD</text>
  </g>
  <g style="fill:none; stroke:#000000; stroke-width:  2.7540; stroke-linecap:butt; stroke-linejoin:miter; stroke-dasharray:none">
   <path d="M412.0290,531.1800L436.5090,531.1800"/>
  </g>
  <g style="fill:#000000; fill-rule:nonzero">
   <path  d="M404.3790,535.5967L412.0290,522.3465L419.6790,535.5967z"/>
  </g>
  <g style="fill:none; stroke:#000000; stroke-width:  0.9180; stroke-linecap:butt; stroke-linejoin:miter; stroke-dasharray:none">
   <path d="M404.3790,535.5967L412.0290,522.3465L419.6790,535.5967z"/>
  </g>
  <g style="fill:#000000; fill-rule:nonzero">
   <path  d="M428.8590,535.5967L436.5090,522.3465L444.1590,535.5967z"/>
  </g>
  <g style="fill:none; stroke:#000000; stroke-width:  0.9180; stroke-linecap:butt; stroke-linejoin:miter; stroke-dasharray:none">
   <path d="M428.8590,535.5967L436.5090,522.3465L444.1590,535.5967z"/>
  </g>
  <g style="fill:#000000; fill-rule:nonzero">
   <text   style="font-family:'Times','Nimbus Roman No9 L'; font-style:normal; font-weight:bold; font-size:612.0000" transform="matrix(0.0490,0.0000,-0.0000,-0.0490,450.2790,490.5600)">Adaptive 10th order FD</text>
  </g>
  <g style="fill:none; stroke:#FF0000; stroke-width:  2.7540; stroke-linecap:butt; stroke-linejoin:miter; stroke-dasharray:none">
   <path d="M412.0290,498.0600L436.5090,498.0600"/>
  </g>
  <g style="fill:#FF0000; fill-rule:nonzero">
   <ellipse  rx="7.6500" ry="7.6500" cx="412.0290" cy="498.0600"/>
  </g>
  <g style="fill:none; stroke:#FF0000; stroke-width:  0.9180; stroke-linecap:butt; stroke-linejoin:miter; stroke-dasharray:none">
   <ellipse  rx="7.6500" ry="7.6500" cx="412.0290" cy="498.0600"/>
  </g>
  <g style="fill:#FF0000; fill-rule:nonzero">
   <ellipse  rx="7.6500" ry="7.6500" cx="436.5090" cy="498.0600"/>
  </g>
  <g style="fill:none; stroke:#FF0000; stroke-width:  0.9180; stroke-linecap:butt; stroke-linejoin:miter; stroke-dasharray:none">
   <ellipse  rx="7.6500" ry="7.6500" cx="436.5090" cy="498.0600"/>
  </g>
  <g style="fill:#000000; fill-rule:nonzero">
   <text   style="font-family:'Times','Nimbus Roman No9 L'; font-style:normal; font-weight:bold; font-size:612.0000" transform="matrix(0.0490,0.0000,-0.0000,-0.0490,450.2790,457.4400)">Standard 10th order FD</text>
  </g>
  <g style="fill:none; stroke:#00FF00; stroke-width:  2.7540; stroke-linecap:butt; stroke-linejoin:miter; stroke-dasharray:none">
   <path d="M412.0290,467.4400L436.5090,467.4400"/>
  </g>
  <g style="fill:#00FF00; fill-rule:nonzero">
   <path  d="M405.5265,460.9375L405.5265,473.9425L418.5315,473.9425L418.5315,460.9375z"/>
  </g>
  <g style="fill:none; stroke:#00FF00; stroke-width:  0.9180; stroke-linecap:butt; stroke-linejoin:miter; stroke-dasharray:none">
   <path d="M405.5265,460.9375L405.5265,473.9425L418.5315,473.9425L418.5315,460.9375z"/>
  </g>
  <g style="fill:#00FF00; fill-rule:nonzero">
   <path  d="M430.0065,460.9375L430.0065,473.9425L443.0115,473.9425L443.0115,460.9375z"/>
  </g>
  <g style="fill:none; stroke:#00FF00; stroke-width:  0.9180; stroke-linecap:butt; stroke-linejoin:miter; stroke-dasharray:none">
   <path d="M430.0065,460.9375L430.0065,473.9425L443.0115,473.9425L443.0115,460.9375z"/>
  </g>
  <g style="fill:#000000; fill-rule:nonzero">
   <text   style="font-family:'Times','Nimbus Roman No9 L'; font-style:normal; font-weight:bold; font-size:612.0000" transform="matrix(0.0490,0.0000,-0.0000,-0.0490,450.2790,429.3200)">Standard 12th order FD</text>
  </g>
  <g style="fill:none; stroke:#0000FF; stroke-width:  2.7540; stroke-linecap:butt; stroke-linejoin:miter; stroke-dasharray:none">
   <path d="M412.0290,439.3200L436.5090,439.3200"/>
  </g>
  <g style="fill:#0000FF; fill-rule:nonzero">
   <path  d="M412.0290,448.1535L404.3790,434.9033L419.6790,434.9033z"/>
  </g>
  <g style="fill:none; stroke:#0000FF; stroke-width:  0.9180; stroke-linecap:butt; stroke-linejoin:miter; stroke-dasharray:none">
   <path d="M412.0290,448.1535L404.3790,434.9033L419.6790,434.9033z"/>
  </g>
  <g style="fill:#0000FF; fill-rule:nonzero">
   <path  d="M436.5090,448.1535L428.8590,434.9033L444.1590,434.9033z"/>
  </g>
  <g style="fill:none; stroke:#0000FF; stroke-width:  0.9180; stroke-linecap:butt; stroke-linejoin:miter; stroke-dasharray:none">
   <path d="M436.5090,448.1535L428.8590,434.9033L444.1590,434.9033z"/>
  </g>
 </g>
</svg>
